<?xml version="1.0" encoding="utf-8"?>
<!-- Generator: Adobe Illustrator 26.0.3, SVG Export Plug-In . SVG Version: 6.00 Build 0)  -->
<svg version="1.1" id="Layer_1" xmlns="http://www.w3.org/2000/svg" xmlns:xlink="http://www.w3.org/1999/xlink" x="0px" y="0px"
	 viewBox="0 0 520.8 187.2" style="enable-background:new 0 0 520.8 187.2;" xml:space="preserve">
<style type="text/css">
	.st0{fill:#231F20;}
	.st1{fill:#F26531;}
	.st2{fill:none;}
</style>
<g>
	<path class="st0" d="M491.8,42.6c-0.8,0-1.6-0.6-1.8-1.5c-0.2-1,0.4-1.9,1.4-2.1l25.8-5c1-0.2,1.9,0.4,2.1,1.4
		c0.2,1-0.4,1.9-1.4,2.1l-25.8,5C492.1,42.6,492,42.6,491.8,42.6z"/>
	<path class="st0" d="M493.4,31c-0.7,0-1.3-0.4-1.6-1c-0.5-0.9-0.1-2,0.8-2.4l25.5-13.4c0.9-0.5,2-0.1,2.4,0.8
		c0.5,0.9,0.1,2-0.8,2.4l-25.5,13.4C494,30.9,493.7,31,493.4,31z"/>
	<path class="st0" d="M482.6,26.2c-0.4,0-0.8-0.1-1.1-0.4c-0.8-0.6-0.9-1.7-0.3-2.5l17.9-22.6c0.6-0.8,1.8-0.9,2.5-0.3
		c0.8,0.6,0.9,1.7,0.3,2.5l-17.9,22.6C483.7,26,483.2,26.2,482.6,26.2z"/>
</g>
<g>
	<path class="st1" d="M223.8,52.7c0.3,0,0.4-0.1,0.5-0.4l4.5-21.3h15.4c0.3,0,0.4-0.1,0.4-0.3l1.7-8.2c0.1-0.2,0-0.4-0.2-0.4h-15.4
		l2.4-11.3h15.4c0.2,0,0.3-0.1,0.4-0.3l1.7-8.2c0-0.2-0.1-0.3-0.3-0.3h-24c-0.2,0-0.3,0.1-0.4,0.3l-10.8,50c-0.1,0.2,0,0.4,0.3,0.4
		H223.8z M202,51.5c2.5-1.3,4.7-3.1,6.5-5.3c1.8-2.2,3-4.7,3.6-7.4l7.6-36.4c0-0.2,0-0.3-0.2-0.3H211c-0.2,0-0.3,0.1-0.4,0.3
		l-7.7,36.4c-0.4,1.7-1.2,3-2.5,4.2c-1.3,1.1-2.8,1.7-4.4,1.7c-1.6,0-2.7-0.6-3.6-1.7c-0.8-1.1-1.1-2.5-0.7-4.2l7.7-36.4
		c0-0.2,0-0.3-0.2-0.3h-8.4c-0.2,0-0.3,0.1-0.4,0.3l-7.9,36.4c-0.6,2.7-0.4,5.1,0.4,7.4c0.9,2.2,2.3,4,4.2,5.4c2,1.3,4.3,2,6.9,2
		C196.9,53.4,199.5,52.8,202,51.5 M168.8,18.8l0.9-2.7l-0.1,2.7l-1.3,20.5H161L168.8,18.8z M147.1,52.7h8.3c0.2,0,0.4-0.1,0.5-0.4
		l2-5.3h10.2l-0.3,5.3c0,0.2,0.1,0.4,0.3,0.4h8.3c0.3,0,0.4-0.1,0.4-0.4l1.7-50c0-0.2-0.1-0.3-0.3-0.3h-10.9c-0.2,0-0.3,0.1-0.4,0.3
		l-19.9,50C146.8,52.6,146.9,52.7,147.1,52.7"/>
	<path class="st1" d="M194.1,53.6c-2.7,0-5-0.7-7-2c-2-1.3-3.4-3.2-4.3-5.4c-0.9-2.3-1-4.8-0.4-7.4l7.9-36.4
		c0.1-0.3,0.2-0.4,0.5-0.4h8.4c0.1,0,0.3,0,0.3,0.1c0.1,0.1,0.1,0.2,0.1,0.3l-7.7,36.4c-0.3,1.6-0.1,3,0.7,4.1
		c0.8,1.1,2,1.6,3.5,1.6c1.6,0,3-0.6,4.3-1.7c1.3-1.1,2.1-2.5,2.5-4.1l7.7-36.4c0.1-0.3,0.2-0.4,0.5-0.4h8.4c0.1,0,0.3,0,0.3,0.1
		c0.1,0.1,0.1,0.2,0.1,0.3l-7.6,36.4c-0.6,2.7-1.8,5.3-3.6,7.5c-1.8,2.2-4,4-6.5,5.4l0,0C199.6,52.9,196.9,53.6,194.1,53.6z
		 M190.8,2.2c-0.1,0-0.2,0-0.2,0.2l-7.9,36.4c-0.6,2.6-0.4,5.1,0.4,7.3c0.8,2.2,2.2,4,4.2,5.3c1.9,1.3,4.2,2,6.8,2
		c2.7,0,5.3-0.7,7.8-1.9l0,0c2.5-1.3,4.6-3.1,6.4-5.3c1.8-2.2,3-4.7,3.5-7.4l7.6-36.4c0-0.1,0-0.1,0-0.1l0,0c0,0,0,0-0.1,0H211
		c-0.1,0-0.2,0-0.2,0.2L203,38.7c-0.4,1.7-1.2,3.1-2.6,4.3c-1.3,1.2-2.9,1.8-4.5,1.8c-1.6,0-2.8-0.6-3.7-1.8
		c-0.9-1.2-1.1-2.6-0.8-4.3l7.7-36.4c0-0.1,0-0.1,0-0.1c0,0,0,0-0.1,0H190.8z M223.8,52.9h-8.4c-0.2,0-0.3-0.1-0.4-0.2
		c-0.1-0.1-0.1-0.2-0.1-0.4l10.8-50c0.1-0.3,0.2-0.4,0.5-0.4h24c0.2,0,0.3,0.1,0.4,0.1c0,0.1,0.1,0.2,0.1,0.3l-1.7,8.2
		c-0.1,0.3-0.2,0.4-0.5,0.4h-15.3l-2.3,11h15.2c0.2,0,0.3,0.1,0.3,0.1c0.1,0.1,0.1,0.2,0.1,0.4l-1.7,8.2c0,0.2-0.2,0.4-0.6,0.4
		h-15.3l-4.5,21.2C224.3,52.7,224.1,52.9,223.8,52.9z M226.2,2.2c-0.1,0-0.2,0-0.2,0.2l-10.8,50c0,0.1,0,0.1,0,0.1c0,0,0.1,0,0.1,0
		h8.4c0.2,0,0.3-0.1,0.3-0.2l4.6-21.5h15.5c0.3,0,0.3-0.1,0.3-0.2l1.7-8.2c0-0.1,0-0.2,0-0.2c0,0,0,0-0.1,0h-15.6l2.5-11.6h15.5
		c0.1,0,0.2,0,0.2-0.2l1.7-8.2c0,0,0-0.1,0-0.1c0,0-0.1,0-0.2,0H226.2z M176.4,52.9h-8.3c-0.1,0-0.2,0-0.3-0.1
		c-0.1-0.1-0.1-0.2-0.1-0.4l0.3-5.2H158l-1.9,5.2c-0.2,0.4-0.4,0.5-0.6,0.5h-8.3c-0.1,0-0.2,0-0.3-0.1c-0.1-0.1-0.1-0.2-0.1-0.4
		l20-50.1c0.1-0.3,0.3-0.4,0.6-0.4h10.9c0.3,0,0.5,0.2,0.5,0.4l-1.7,50.1C176.9,52.7,176.7,52.9,176.4,52.9z M157.8,46.9h10.5
		l-0.3,5.5c0,0.1,0,0.1,0,0.2c0,0,0.1,0,0.1,0h8.3c0.2,0,0.2-0.1,0.2-0.2l1.7-50c0-0.1,0-0.1-0.2-0.1h-10.9c-0.1,0-0.2,0.1-0.3,0.2
		l-19.9,50c0,0.1,0,0.1,0,0.1c0,0,0,0,0.1,0h8.3c0.1,0,0.2,0,0.3-0.3L157.8,46.9z M168.4,39.4h-7.6l0.1-0.2l7.7-20.5l1.2-3.8
		l-0.2,3.8L168.4,39.4z M161.2,39.1h6.8l1.3-20.3l0.1-1.5l-0.5,1.6L161.2,39.1z"/>
	<path class="st1" d="M178.9,119.6c0.2,0,0.3-0.1,0.4-0.3l1.8-8.3c0.1-0.2,0-0.4-0.2-0.4h-15.5l2.7-12.7h15.5c0.2,0,0.3-0.1,0.4-0.3
		l1.7-8.2c0-0.2,0-0.3-0.2-0.3h-15.4l2.4-11.4h15.4c0.2,0,0.3-0.1,0.4-0.3l1.7-8.2c0.1-0.2,0-0.4-0.2-0.4h-24.1
		c-0.2,0-0.3,0.1-0.4,0.3l-10.7,50c-0.1,0.2,0,0.4,0.2,0.4H178.9z M147.4,119.6c0.2,0,0.3-0.1,0.4-0.4l10.6-50c0-0.2,0-0.3-0.2-0.3
		h-8.4c-0.2,0-0.3,0.1-0.4,0.3l-10.7,50c-0.1,0.2,0,0.4,0.3,0.4H147.4z M121.3,77.6l5.3-0.1c1.6,0,2.9,0.5,3.8,1.6
		c0.9,1.1,1.2,2.5,0.9,4l-4.5,21c-0.4,1.7-1.3,3.3-2.9,4.5c-1.5,1.3-3.2,1.9-5.1,1.9h-4.7L121.3,77.6z M117,119.5
		c3,0,5.8-0.8,8.4-2.1c2.6-1.4,4.9-3.2,6.8-5.5c1.9-2.3,3.1-4.9,3.7-7.7l4.4-20.9c0.6-2.7,0.4-5.1-0.5-7.3c-0.9-2.2-2.3-4-4.3-5.3
		c-2-1.3-4.4-1.9-7.1-1.9l-14.1,0.1c-0.2,0-0.3,0.1-0.4,0.3l-10.8,50c-0.1,0.2,0,0.4,0.3,0.4L117,119.5z"/>
	<path class="st1" d="M178.9,119.7h-24.3c-0.1,0-0.2,0-0.3-0.1c-0.1-0.1-0.1-0.2-0.1-0.4l10.7-50c0.1-0.3,0.2-0.4,0.5-0.4h24.1
		c0.2,0,0.3,0.1,0.3,0.1c0.1,0.1,0.1,0.2,0.1,0.4l-1.7,8.2c-0.1,0.3-0.2,0.4-0.5,0.4h-15.3l-2.3,11h15.2c0.1,0,0.3,0,0.3,0.1
		c0.1,0.1,0.1,0.2,0.1,0.3l-1.7,8.2c-0.1,0.3-0.2,0.4-0.5,0.4h-15.3l-2.6,12.4h15.3c0.2,0,0.3,0.1,0.3,0.1c0.1,0.1,0.1,0.2,0.1,0.4
		l-1.8,8.3C179.4,119.6,179.2,119.7,178.9,119.7z M165.5,69c-0.1,0-0.2,0-0.2,0.2l-10.7,50c0,0.1,0,0.2,0,0.2c0,0,0,0,0.1,0h24.3
		c0.1,0,0.2,0,0.2-0.2l1.8-8.3c0-0.1,0-0.1,0-0.2c0,0,0,0-0.1,0h-15.7l2.8-13.1h15.6c0.1,0,0.2,0,0.2-0.2l1.7-8.2c0-0.1,0-0.1,0-0.1
		c0,0,0,0-0.1,0h-15.6l2.5-11.7h15.5c0.1,0,0.2,0,0.2-0.2l1.7-8.2c0-0.1,0-0.2,0-0.2c0,0,0,0-0.1,0H165.5z M147.4,119.7H139
		c-0.2,0-0.3-0.1-0.4-0.2c-0.1-0.1-0.1-0.2-0.1-0.4l10.7-50c0.1-0.3,0.2-0.4,0.5-0.4h8.4c0.2,0,0.3,0,0.3,0.1
		c0.1,0.1,0.1,0.2,0.1,0.3l-10.6,50C147.9,119.7,147.6,119.7,147.4,119.7z M149.7,69c-0.1,0-0.2,0-0.2,0.2l-10.7,50
		c0,0.1,0,0.1,0,0.1c0,0,0.1,0,0.1,0h8.5c0.1,0,0.2,0,0.2-0.2l10.6-50c0-0.1,0-0.1,0-0.1l0,0c0,0,0,0-0.1,0H149.7z M103.5,119.7
		c-0.2,0-0.3-0.1-0.4-0.2c-0.1-0.1-0.1-0.2-0.1-0.4l10.8-50c0.1-0.3,0.2-0.4,0.5-0.4l14.1-0.1c0.1,0,0.2,0,0.3,0
		c2.7,0,5,0.6,6.9,1.9c2,1.3,3.5,3.1,4.4,5.4c0.9,2.2,1,4.7,0.5,7.4l-4.4,20.9c-0.6,2.8-1.9,5.4-3.8,7.7c-1.9,2.3-4.2,4.2-6.9,5.5
		c-2.7,1.4-5.5,2.1-8.5,2.1h0L103.5,119.7z M128.7,68.9c-0.1,0-0.2,0-0.3,0L114.4,69c-0.1,0-0.2,0-0.2,0.2l-10.8,50
		c0,0.1,0,0.1,0,0.1c0,0,0.1,0,0.1,0l13.5-0.1c2.9,0,5.7-0.8,8.3-2.1c2.6-1.3,4.9-3.2,6.8-5.5c1.9-2.3,3.1-4.8,3.7-7.6l4.4-20.9
		c0.6-2.6,0.4-5.1-0.5-7.2c-0.9-2.2-2.3-3.9-4.3-5.2C133.6,69.6,131.3,68.9,128.7,68.9z M118.9,110.8H114l0-0.2l7.1-33.1l0.1,0
		l5.3-0.1c0.1,0,0.1,0,0.2,0c1.6,0,2.8,0.6,3.7,1.7c1,1.2,1.3,2.6,0.9,4.2l-4.5,21c-0.4,1.8-1.4,3.3-2.9,4.6
		C122.5,110.1,120.7,110.8,118.9,110.8z M114.4,110.4h4.5c1.8,0,3.5-0.6,5-1.9c1.5-1.2,2.5-2.7,2.8-4.4l4.5-21
		c0.3-1.5,0-2.8-0.9-3.9c-0.9-1.1-2-1.6-3.5-1.6c-0.1,0-0.1,0-0.2,0l-5.2,0.1L114.4,110.4z"/>
	<path class="st1" d="M307.1,187c0.2,0,0.3-0.1,0.4-0.4l1.7-7.9c0-0.2,0-0.3-0.2-0.3h-8.4c-0.2,0-0.3,0.1-0.4,0.3l-1.7,7.9
		c-0.1,0.2,0,0.4,0.2,0.4H307.1z M308.3,173.6c0.2,0,0.4-0.1,0.5-0.4l5.1-16.8l4.3-19.8c0.1-0.2,0-0.4-0.3-0.4h-8.4
		c-0.2,0-0.3,0.1-0.4,0.4l-4.2,19.8l-2,16.8c0,0.2,0.1,0.4,0.3,0.4H308.3z M291.4,187c0.2,0,0.3-0.1,0.4-0.3l1.8-8.3
		c0.1-0.2,0-0.4-0.2-0.4h-15.5l2.7-12.7H296c0.2,0,0.3-0.1,0.4-0.3l1.7-8.2c0-0.2,0-0.3-0.2-0.3h-15.4l2.4-11.4h15.4
		c0.2,0,0.3-0.1,0.4-0.3l1.7-8.2c0.1-0.2,0-0.4-0.2-0.4H278c-0.2,0-0.3,0.1-0.4,0.3l-10.7,50c-0.1,0.2,0,0.4,0.2,0.4H291.4z
		 M261.8,187c0.2,0,0.4-0.1,0.5-0.4l1.6-7.8c0.1-0.2,0-0.4-0.2-0.4h-18.1l25.5-33.9l1.7-7.9c0.1-0.2,0-0.4-0.3-0.4h-27.2
		c-0.2,0-0.3,0.1-0.4,0.4l-1.6,7.7c0,0.2,0,0.3,0.2,0.3h17.4l-25.6,34.1l-1.8,7.9c-0.1,0.2,0,0.4,0.3,0.4H261.8z M221.7,187
		c0.2,0,0.3-0.1,0.4-0.4l8.8-41.5h9.8c0.2,0,0.3-0.1,0.4-0.4l1.7-8.2c0-0.2-0.1-0.3-0.3-0.3h-28.5c-0.2,0-0.3,0.1-0.4,0.3l-1.8,8.2
		c-0.1,0.2,0,0.4,0.3,0.4h9.8l-8.8,41.5c-0.1,0.2,0,0.4,0.2,0.4H221.7z M197.9,131.4c0.2,0,0.3-0.1,0.4-0.3l1.7-8.2
		c0-0.2,0-0.3-0.2-0.3h-8.5c-0.2,0-0.3,0.1-0.4,0.3l-1.7,8.2c0,0.2,0,0.3,0.2,0.3H197.9z M213.6,131.4c0.2,0,0.3-0.1,0.4-0.3
		l1.7-8.2c0-0.2,0-0.3-0.2-0.3H207c-0.2,0-0.3,0.1-0.4,0.3l-1.8,8.2c0,0.2,0,0.3,0.2,0.3H213.6z M196.6,153.1l0.9-2.7l-0.1,2.7
		l-1.3,20.5h-7.2L196.6,153.1z M175,187h8.3c0.2,0,0.4-0.1,0.5-0.4l2-5.3H196l-0.3,5.3c0,0.2,0.1,0.4,0.3,0.4h8.3
		c0.2,0,0.4-0.1,0.4-0.4l1.7-50c0-0.2-0.1-0.3-0.3-0.3h-10.9c-0.2,0-0.3,0.1-0.4,0.3l-19.9,50C174.7,186.9,174.8,187,175,187
		 M172,187c0.3,0,0.4-0.1,0.5-0.4l1.7-8.2c0.1-0.2,0-0.4-0.3-0.4h-15.5l8.9-41.4c0.1-0.2,0-0.4-0.3-0.4h-8.3c-0.3,0-0.4,0.1-0.5,0.4
		l-10.7,50c-0.1,0.2,0,0.4,0.2,0.4H172z M131.2,145.1l5.7-0.1c1.8,0,3.2,0.6,4,1.8c0.8,1.2,1,2.8,0.6,4.7c-0.5,2.4-1.5,4.3-3,5.8
		c-1.5,1.5-3,2.2-4.6,2.2h-5.7L131.2,145.1z M121.9,187c0.2,0,0.4-0.1,0.5-0.4l3.9-18.4h5.7c2.7,0,5.3-0.7,7.8-2
		c2.5-1.4,4.8-3.3,6.7-5.8c1.9-2.5,3.3-5.5,4-9c1-4.7,0.4-8.4-1.7-11.1c-2.1-2.7-5.5-4.1-10.1-4.1h-14.4c-0.2,0-0.3,0.1-0.4,0.3
		l-10.8,50c-0.1,0.2,0,0.4,0.3,0.4H121.9z"/>
	<path class="st1" d="M307.1,187.2h-8.4c-0.1,0-0.2,0-0.3-0.1c-0.1-0.1-0.1-0.2-0.1-0.4l1.7-7.9c0.1-0.3,0.2-0.4,0.5-0.4h8.4
		c0.1,0,0.3,0,0.3,0.1c0.1,0.1,0.1,0.2,0.1,0.3l-1.7,7.9C307.6,187.1,307.3,187.2,307.1,187.2z M300.5,178.6c-0.1,0-0.2,0-0.2,0.2
		l-1.7,7.9c0,0.1,0,0.2,0,0.2c0,0,0,0,0.1,0h8.4c0.1,0,0.2,0,0.2-0.2l1.7-7.9c0-0.1,0-0.1,0-0.1l0,0c0,0,0,0-0.1,0H300.5z
		 M291.4,187.2h-24.3c-0.1,0-0.2,0-0.3-0.1c-0.1-0.1-0.1-0.2-0.1-0.4l10.7-50c0.1-0.3,0.2-0.4,0.5-0.4h24.1c0.2,0,0.3,0.1,0.3,0.1
		c0.1,0.1,0.1,0.2,0.1,0.4l-1.7,8.2c-0.1,0.3-0.2,0.4-0.5,0.4H285l-2.3,11.1h15.2c0.1,0,0.3,0,0.3,0.1c0.1,0.1,0.1,0.2,0.1,0.3
		l-1.7,8.2c-0.1,0.3-0.2,0.4-0.5,0.4h-15.3l-2.6,12.4h15.3c0.2,0,0.3,0.1,0.3,0.1c0.1,0.1,0.1,0.2,0.1,0.4l-1.8,8.3
		C291.9,187.1,291.7,187.2,291.4,187.2z M278,136.5c-0.1,0-0.2,0-0.2,0.2l-10.7,50c0,0.1,0,0.2,0,0.2c0,0,0,0,0.1,0h24.3
		c0.1,0,0.2,0,0.2-0.2l1.8-8.3c0-0.1,0-0.2,0-0.2c0,0,0,0-0.1,0h-15.7l0-0.2l2.7-12.9H296c0.1,0,0.2,0,0.2-0.2l1.7-8.2
		c0-0.1,0-0.1,0-0.1l0,0c0,0,0,0-0.1,0h-15.6l0-0.2l2.4-11.5h15.5c0.1,0,0.2,0,0.2-0.2l1.7-8.2c0-0.1,0-0.1,0-0.2c0,0,0,0-0.1,0H278
		z M261.8,187.2h-28c-0.2,0-0.3-0.1-0.4-0.2c-0.1-0.1-0.1-0.2-0.1-0.4l1.8-8l25.5-33.8h-17.1c-0.1,0-0.3,0-0.3-0.1
		c-0.1-0.1-0.1-0.2-0.1-0.3l1.6-7.7c0.1-0.4,0.4-0.5,0.5-0.5h27.2c0.2,0,0.3,0.1,0.4,0.2c0.1,0.1,0.1,0.2,0.1,0.4l-1.7,7.9
		l-25.4,33.7h17.8c0.2,0,0.3,0.1,0.3,0.1c0.1,0.1,0.1,0.2,0.1,0.4l-1.6,7.8C262.3,187,262.1,187.2,261.8,187.2z M235.3,178.8
		l-1.8,7.9c0,0.1,0,0.1,0,0.1c0,0,0.1,0,0.1,0h28c0.2,0,0.3-0.1,0.3-0.2l1.6-7.8c0-0.1,0-0.1,0-0.2c0,0,0,0-0.1,0h-18.4l0.2-0.3
		l25.5-33.9l1.7-7.8c0-0.1,0-0.1,0-0.1c0,0,0,0-0.1,0h-27.2c-0.1,0-0.2,0-0.2,0.2l-1.6,7.7c0,0.1,0,0.1,0,0.1c0,0,0,0,0.1,0h17.7
		l-0.2,0.3L235.3,178.8z M221.7,187.2h-8.5c-0.1,0-0.2,0-0.3-0.1c-0.1-0.1-0.1-0.2-0.1-0.4l8.8-41.3h-9.6c-0.2,0-0.3-0.1-0.4-0.2
		c-0.1-0.1-0.1-0.2-0.1-0.4l1.8-8.2c0.1-0.3,0.2-0.4,0.5-0.4h28.5c0.2,0,0.3,0.1,0.4,0.2c0,0.1,0.1,0.2,0.1,0.3l-1.7,8.2
		c-0.1,0.4-0.4,0.5-0.5,0.5H231l-8.7,41.4C222.2,187.1,221.9,187.2,221.7,187.2z M213.9,136.5c-0.1,0-0.2,0-0.2,0.2l-1.8,8.2
		c0,0.1,0,0.1,0,0.1c0,0,0.1,0,0.1,0h10l0,0.2l-8.8,41.5c0,0.1,0,0.2,0,0.2c0,0,0,0,0.1,0h8.5c0.1,0,0.2,0,0.2-0.2l8.8-41.6h10
		c0.1,0,0.2,0,0.2-0.2l1.7-8.2c0,0,0-0.1,0-0.1c0,0-0.1,0-0.2,0H213.9z M204.3,187.2H196c-0.1,0-0.2,0-0.3-0.1
		c-0.1-0.1-0.1-0.2-0.1-0.4l0.3-5.2h-9.9l-1.9,5.2c-0.2,0.4-0.4,0.5-0.6,0.5H175c-0.1,0-0.2,0-0.3-0.1c-0.1-0.1-0.1-0.2-0.1-0.4
		l20-50.1c0.1-0.3,0.3-0.4,0.6-0.4h10.9c0.3,0,0.5,0.2,0.5,0.4l-1.7,50.1C204.8,187,204.6,187.2,204.3,187.2z M185.6,181.2h10.5
		l-0.3,5.5c0,0.1,0,0.1,0,0.2c0,0,0.1,0,0.1,0h8.3c0.2,0,0.2-0.1,0.2-0.2l1.7-50c0-0.1,0-0.1-0.2-0.1h-10.9c-0.1,0-0.2,0.1-0.3,0.2
		l-19.9,50c0,0.1,0,0.1,0,0.1c0,0,0,0,0.1,0h8.3c0.1,0,0.2,0,0.3-0.3L185.6,181.2z M172,187.2h-24.3c-0.2,0-0.3-0.1-0.3-0.1
		c-0.1-0.1-0.1-0.2-0.1-0.4l10.7-50c0.1-0.3,0.3-0.5,0.6-0.5h8.3c0.2,0,0.3,0.1,0.4,0.2c0.1,0.1,0.1,0.2,0.1,0.4l-8.8,41.2h15.3
		c0.2,0,0.3,0.1,0.4,0.2c0.1,0.1,0.1,0.2,0.1,0.4l-1.7,8.2C172.5,187,172.3,187.2,172,187.2z M158.7,136.5c-0.2,0-0.3,0.1-0.3,0.2
		l-10.7,50c0,0.1,0,0.1,0,0.2c0,0,0,0,0.1,0H172c0.2,0,0.3-0.1,0.3-0.2l1.7-8.2c0-0.1,0-0.1,0-0.1c0,0-0.1,0-0.1,0h-15.7l0-0.2
		l8.9-41.4c0-0.1,0-0.1,0-0.1c0,0-0.1,0-0.1,0H158.7z M121.9,187.2h-8.4c-0.2,0-0.3-0.1-0.4-0.2c-0.1-0.1-0.1-0.2-0.1-0.4l10.8-50
		c0.1-0.3,0.2-0.4,0.5-0.4h14.4c4.6,0,8.1,1.4,10.2,4.1c2.1,2.7,2.7,6.5,1.7,11.2c-0.7,3.4-2.1,6.5-4,9c-1.9,2.5-4.2,4.5-6.8,5.9
		c-2.6,1.4-5.2,2.1-7.9,2.1h-5.6l-3.9,18.2C122.4,187,122.2,187.2,121.9,187.2z M124.3,136.5c-0.1,0-0.2,0-0.2,0.2l-10.8,50
		c0,0.1,0,0.1,0,0.1c0,0,0.1,0,0.1,0h8.4c0.2,0,0.3-0.1,0.3-0.2l3.9-18.5h5.8c2.6,0,5.2-0.7,7.7-2c2.5-1.3,4.8-3.3,6.7-5.8
		c1.9-2.5,3.3-5.5,4-8.9c1-4.6,0.4-8.3-1.6-10.9c-2.1-2.7-5.4-4-9.9-4H124.3z M308.3,173.8h-5.1c-0.1,0-0.5-0.1-0.5-0.5l2-16.8
		l4.2-19.8c0.1-0.4,0.4-0.5,0.5-0.5h8.4c0.2,0,0.3,0.1,0.4,0.2c0.1,0.1,0.1,0.2,0.1,0.4l-4.3,19.8l-5.1,16.8
		C308.8,173.7,308.5,173.8,308.3,173.8z M309.5,136.5c-0.1,0-0.2,0-0.2,0.2l-4.2,19.8l-2,16.7c0,0.2,0.1,0.2,0.1,0.2h5.1
		c0.1,0,0.2,0,0.3-0.3l5.1-16.7l4.3-19.8c0-0.1,0-0.1,0-0.1c0,0-0.1,0-0.1,0H309.5z M196.3,173.7h-7.6l0.1-0.2l7.7-20.5l1.2-3.8
		l-0.2,3.9L196.3,173.7z M189.1,173.4h6.8l1.3-20.3l0.1-1.5l-0.5,1.6L189.1,173.4z M133.8,159.7h-5.9l3.1-14.7l0.1,0l5.7-0.1
		c1.9,0,3.3,0.6,4.1,1.9c0.8,1.2,1,2.9,0.6,4.8c-0.5,2.4-1.5,4.4-3,5.9C137.1,158.9,135.5,159.7,133.8,159.7z M128.3,159.4h5.5
		c1.6,0,3.1-0.7,4.5-2.2c1.5-1.4,2.5-3.4,3-5.7c0.4-1.8,0.2-3.4-0.6-4.5c-0.8-1.2-2-1.7-3.8-1.7l-5.6,0.1L128.3,159.4z M213.6,131.6
		h-8.5c-0.1,0-0.3,0-0.3-0.1c-0.1-0.1-0.1-0.2-0.1-0.3l1.8-8.2c0.1-0.3,0.2-0.4,0.5-0.4h8.5c0.2,0,0.3,0,0.3,0.1
		c0.1,0.1,0.1,0.2,0.1,0.3l-1.7,8.2C214,131.4,213.8,131.6,213.6,131.6z M207,122.7c-0.1,0-0.2,0-0.2,0.2l-1.8,8.2
		c0,0.1,0,0.1,0,0.1c0,0,0,0,0.1,0h8.5c0.1,0,0.2,0,0.2-0.2l1.7-8.2c0-0.1,0-0.1,0-0.1l0,0c0,0,0,0-0.1,0H207z M197.9,131.6h-8.5
		c-0.1,0-0.3,0-0.3-0.1s-0.1-0.2-0.1-0.3l1.7-8.2c0.1-0.3,0.2-0.4,0.5-0.4h8.5c0.1,0,0.3,0,0.3,0.1c0.1,0.1,0.1,0.2,0.1,0.3
		l-1.7,8.2C198.4,131.4,198.2,131.6,197.9,131.6z M191.3,122.7c-0.1,0-0.2,0-0.2,0.2l-1.7,8.2c0,0.1,0,0.1,0,0.1c0,0,0,0,0.1,0h8.5
		c0.1,0,0.2,0,0.2-0.2l1.7-8.2c0-0.1,0-0.1,0-0.1l0,0c0,0,0,0-0.1,0H191.3z"/>
	<path class="st0" d="M470.9,89.7h5.7l-2.3,18.5h3l2.3-18.5h5.8l0.4-2.8h-14.6L470.9,89.7z M452.8,89.7h3.8c1,0,2,0.1,2.9,0.4
		c0.9,0.3,1.7,0.7,2.4,1.4c0.7,0.6,1.2,1.4,1.6,2.3c0.3,1,0.5,2.1,0.4,3.4c-0.1,1.4-0.4,2.6-0.9,3.6c-0.5,1-1.1,1.9-1.9,2.6
		c-0.8,0.7-1.7,1.2-2.8,1.5c-1.1,0.3-2.2,0.5-3.4,0.5h-4L452.8,89.7z M454.9,108.3c1.5,0,3-0.2,4.4-0.7c1.4-0.5,2.6-1.2,3.7-2.1
		c1.1-0.9,2-2.1,2.6-3.4c0.7-1.3,1.1-2.9,1.2-4.6c0.1-1.3,0-2.6-0.3-3.9s-0.8-2.4-1.6-3.4c-0.8-1-1.8-1.8-3.2-2.4
		c-1.4-0.6-3.1-0.9-5.1-0.9h-6.4l-2.7,21.3H454.9z M429.1,102.6h10l-0.6-2.5h-8.2L429.1,102.6z M437,89.3l-2.3,1.4l5,17.6h3.4
		L436.2,86H436l-12.4,22.2h3L437,89.3z M410.2,89.7h5.7l-2.3,18.5h3l2.3-18.5h5.8l0.4-2.8h-14.6L410.2,89.7z M406.9,89
		c-0.5-0.4-1.1-0.7-1.8-1c-0.6-0.3-1.4-0.5-2.1-0.8c-0.8-0.2-1.7-0.3-2.6-0.4c-1.3,0-2.4,0.2-3.5,0.6c-1,0.4-1.9,1.1-2.5,1.9
		c-0.6,0.8-1,1.8-1.1,3c-0.1,0.9,0,1.6,0.3,2.3c0.3,0.6,0.7,1.2,1.2,1.7c0.5,0.5,1.1,0.9,1.8,1.2c0.7,0.3,1.3,0.7,1.9,0.9
		c0.7,0.3,1.3,0.6,1.9,1c0.6,0.4,1,0.8,1.4,1.3c0.3,0.5,0.5,1,0.5,1.7c-0.1,0.7-0.3,1.3-0.7,1.8c-0.4,0.5-1,0.9-1.6,1.2
		c-0.7,0.3-1.4,0.4-2.3,0.4c-0.7,0-1.4-0.2-2.1-0.4c-0.7-0.2-1.4-0.5-2-0.8c-0.6-0.3-1.1-0.7-1.6-1.1l-1.6,2.2c0.6,0.5,1.3,1,2,1.3
		c0.7,0.4,1.5,0.7,2.4,0.9c0.9,0.2,1.8,0.4,2.7,0.4c1.3,0,2.4-0.1,3.3-0.4c0.9-0.3,1.7-0.8,2.4-1.4c0.6-0.6,1.2-1.2,1.5-1.9
		c0.4-0.7,0.6-1.5,0.7-2.2c0.1-1.3-0.1-2.3-0.5-3.1c-0.5-0.8-1.1-1.4-1.9-1.9c-0.8-0.5-1.6-0.9-2.4-1.3c-0.8-0.3-1.5-0.7-2.1-1.1
		c-0.7-0.4-1.2-0.8-1.6-1.3c-0.4-0.5-0.6-1-0.5-1.6c0-0.3,0.1-0.7,0.3-1c0.2-0.3,0.4-0.7,0.7-0.9c0.3-0.3,0.7-0.5,1.2-0.7
		c0.5-0.2,1.1-0.2,1.8-0.2c0.9,0,1.8,0.2,2.6,0.5c0.9,0.3,1.7,0.7,2.4,1.1L406.9,89z M365.6,97.6l5.7,10.7h4.1l-5.6-10.8L365.6,97.6
		z M362,95.5l1.2-9.6h4.1c0.9,0,1.7,0.2,2.3,0.5c0.6,0.3,1.1,0.7,1.4,1.2c0.3,0.5,0.6,1,0.7,1.5c0.1,0.5,0.1,1.1,0.1,1.6
		c-0.1,0.7-0.3,1.4-0.7,2.1c-0.4,0.7-1,1.4-1.9,1.9c-0.9,0.5-2,0.8-3.4,0.8H362z M360.1,82.6l-3.2,25.6h3.5l1.2-9.4h3.9
		c1.7,0,3.1-0.2,4.3-0.7c1.2-0.5,2.2-1.1,3-1.9c0.8-0.8,1.4-1.7,1.8-2.6c0.4-1,0.7-2,0.9-3c0.1-1.3,0-2.4-0.3-3.4
		c-0.3-1-0.9-1.8-1.6-2.5c-0.8-0.7-1.7-1.2-2.8-1.5c-1.1-0.3-2.3-0.5-3.6-0.5H360.1z M332.6,108.3h17.7l0.4-3.3h-14l0.9-7.9h12.1
		l0.4-3.3h-12.1l1-7.9h13.5l0.4-3.2h-17.2L332.6,108.3z M327.8,82.6h-3.5l-2.3,19.2l0.8,0.2l-17.6-20.2h-0.1l-3.4,26.4h3.6l2.3-19
		l-1-0.3l17.9,20.2h0.1L327.8,82.6z M289.9,108.3h3.6l3.2-25.6h-3.6L289.9,108.3z M265.7,108.3h17.7l0.4-3.3h-14l1-7.9h12.1l0.4-3.3
		h-12.1l1-7.9h13.5l0.4-3.2h-17.2L265.7,108.3z M244.2,86h4.6c1.2,0,2.4,0.2,3.5,0.5c1.1,0.4,2,0.9,2.9,1.6c0.8,0.7,1.4,1.7,1.9,2.8
		c0.4,1.1,0.6,2.5,0.4,4.1c-0.1,1.6-0.4,3.1-1,4.3c-0.6,1.2-1.4,2.3-2.3,3.1c-1,0.8-2.1,1.4-3.4,1.9c-1.3,0.4-2.6,0.6-4.1,0.6h-4.9
		L244.2,86z M246.7,108.3c1.8,0,3.6-0.3,5.3-0.9c1.7-0.6,3.1-1.4,4.5-2.5c1.3-1.1,2.4-2.5,3.2-4.1c0.8-1.6,1.3-3.4,1.4-5.5
		c0.1-1.6,0-3.1-0.3-4.6c-0.3-1.5-1-2.8-1.9-4c-0.9-1.2-2.2-2.1-3.8-2.9s-3.7-1.1-6.1-1.1h-7.7l-3.2,25.6H246.7z"/>
	<path class="st0" d="M469.4,45h-3.5l-2.3,19.2l0.8,0.2l-17.6-20.2h-0.1l-3.4,26.4h3.6l2.3-19l-0.9-0.3l17.9,20.2h0.1L469.4,45z
		 M431.5,70.6h3.7l3.2-25.6h-3.6L431.5,70.6z M394.9,70.6h18.8l0.6-4.9H401l0.7-5.7h11.4l0.6-4.9h-11.4l0.7-5.8h12.9l0.6-4.8h-18.3
		L394.9,70.6z M387.9,64.4c-0.3,0.2-0.7,0.4-1.2,0.7c-0.5,0.3-1.1,0.5-1.9,0.7c-0.8,0.2-1.7,0.3-2.7,0.3c-1.2,0-2.2-0.2-3.2-0.5
		c-0.9-0.4-1.7-0.9-2.4-1.5c-0.6-0.7-1.1-1.5-1.5-2.4c-0.3-0.9-0.5-1.9-0.5-3c0-1.4,0.2-2.7,0.6-3.9c0.4-1.2,1-2.1,1.8-3
		c0.8-0.8,1.7-1.4,2.8-1.9c1.1-0.4,2.3-0.6,3.6-0.5c1.3,0.1,2.4,0.4,3.4,1c0.9,0.5,1.7,1.1,2.2,1.5l2.7-4.7
		c-0.9-0.6-2.1-1.3-3.5-1.9c-1.5-0.6-3.2-0.9-5.3-0.9c-1.9,0-3.6,0.3-5.2,0.8c-1.5,0.5-2.8,1.3-3.9,2.2c-1.1,0.9-2,2-2.7,3.3
		c-0.7,1.2-1.2,2.6-1.6,4c-0.3,1.4-0.5,2.9-0.5,4.4c0,2.3,0.4,4.2,1.2,5.8c0.8,1.6,1.9,2.8,3.1,3.7c1.3,0.9,2.7,1.6,4.2,2
		c1.5,0.4,2.9,0.6,4.3,0.6c1.2,0,2.3-0.1,3.4-0.4c1-0.2,1.9-0.5,2.7-0.8c0.7-0.3,1.3-0.6,1.6-0.8L387.9,64.4z M364.8,44.6h-5.3
		l-1.9,16.3l1.1,0.5L341,43.5h-0.2l-3.4,27.1h5.4l1.9-15.9l-1.5-0.8l18.1,17.9h0.1L364.8,44.6z M312.6,70.6h18.8l0.6-4.9h-13.4
		l0.7-5.7h11.4l0.6-4.9h-11.4l0.7-5.8h12.9l0.6-4.8h-18.3L312.6,70.6z M299.8,70.6h5.5l3.3-26.1H303L299.8,70.6z M292.7,64.4
		c-0.3,0.2-0.7,0.4-1.2,0.7c-0.5,0.3-1.1,0.5-1.9,0.7c-0.8,0.2-1.7,0.3-2.7,0.3c-1.2,0-2.2-0.2-3.2-0.5c-0.9-0.4-1.7-0.9-2.4-1.5
		c-0.6-0.7-1.1-1.5-1.5-2.4c-0.3-0.9-0.5-1.9-0.5-3c0-1.4,0.2-2.7,0.6-3.9c0.4-1.2,1-2.1,1.8-3c0.8-0.8,1.7-1.4,2.8-1.9
		c1.1-0.4,2.3-0.6,3.6-0.5c1.3,0.1,2.4,0.4,3.4,1c1,0.5,1.7,1.1,2.2,1.5l2.7-4.7c-0.9-0.6-2.1-1.3-3.5-1.9c-1.5-0.6-3.2-0.9-5.3-0.9
		c-1.9,0-3.6,0.3-5.2,0.8c-1.5,0.5-2.8,1.3-3.9,2.2c-1.1,0.9-2,2-2.7,3.3c-0.7,1.2-1.2,2.6-1.6,4c-0.3,1.4-0.5,2.9-0.5,4.4
		c0,2.3,0.4,4.2,1.2,5.8c0.8,1.6,1.8,2.8,3.1,3.7c1.3,0.9,2.7,1.6,4.2,2c1.5,0.4,2.9,0.6,4.3,0.6c1.2,0,2.3-0.1,3.4-0.4
		c1-0.2,1.9-0.5,2.7-0.8c0.7-0.3,1.3-0.6,1.6-0.8L292.7,64.4z M271.5,47.5c-0.7-0.5-1.4-1-2.2-1.4c-0.8-0.4-1.7-0.8-2.7-1.1
		c-1-0.3-2.3-0.5-3.7-0.5c-1.7,0-3.2,0.2-4.5,0.8c-1.3,0.6-2.4,1.4-3.3,2.4c-0.8,1.1-1.3,2.4-1.5,3.9c-0.2,1.2-0.1,2.3,0.3,3.2
		c0.4,0.9,0.9,1.7,1.6,2.3c0.7,0.6,1.5,1.1,2.3,1.6c0.8,0.4,1.6,0.8,2.4,1.2c0.7,0.3,1.3,0.6,1.8,1c0.5,0.4,1,0.8,1.3,1.2
		c0.3,0.4,0.4,0.9,0.4,1.5c-0.1,0.8-0.4,1.3-0.9,1.7c-0.5,0.4-1.1,0.7-1.7,0.8c-0.7,0.1-1.3,0.2-1.9,0.2c-0.6,0-1.3-0.2-2-0.4
		c-0.7-0.2-1.4-0.6-2.2-0.9c-0.7-0.4-1.3-0.8-1.9-1.3l-2.8,3.9c0.9,0.7,1.8,1.3,2.8,1.8c1,0.5,2,0.8,3,1.1c1,0.3,2,0.4,3.1,0.5
		c1.5,0.1,2.9,0,4.1-0.4c1.2-0.3,2.2-0.8,3.1-1.5c0.9-0.6,1.6-1.4,2.1-2.3c0.5-0.9,0.8-1.8,0.9-2.8c0.2-1.7,0.1-3-0.4-4
		c-0.5-1-1.2-1.9-2.1-2.5c-0.9-0.6-1.9-1.2-2.8-1.6c-0.8-0.4-1.6-0.7-2.4-1.2c-0.7-0.4-1.3-0.9-1.8-1.4c-0.4-0.5-0.6-1.1-0.5-1.7
		c0-0.4,0.2-0.8,0.4-1.2c0.2-0.3,0.5-0.6,0.8-0.8c0.4-0.2,0.8-0.3,1.2-0.4c0.5-0.1,1-0.1,1.6-0.1c0.9,0,1.9,0.3,2.9,0.7
		c1,0.4,2,0.9,2.9,1.5L271.5,47.5z"/>
	<path class="st0" d="M441.9,6.9h-5.3l-1.9,16.3l1.1,0.5L418,5.9h-0.2L414.4,33h5.4l1.9-15.9l-1.5-0.9L438.3,34h0.1L441.9,6.9z
		 M389.6,33h18.8l0.6-4.9h-13.4l0.7-5.7h11.4l0.6-4.9h-11.4l0.7-5.8h12.9l0.6-4.8h-18.3L389.6,33z M385,33l0.6-5h-14.4l0.5,0.6
		l16.7-21.7h-14.9c-0.4,0-0.7-0.1-0.9-0.2c-0.1-0.1-0.2-0.3-0.2-0.6l0-0.5h-4.9L367,9.3c0,0.5,0.1,0.9,0.4,1.3
		c0.3,0.4,0.8,0.7,1.3,0.9c0.5,0.2,1,0.3,1.6,0.3h9.7l-0.6-1.4L362.1,33H385z M351.7,33h5.5l3.3-26.1H355L351.7,33z M330.7,12h6.2
		l-2.7,21h5.5l2.7-21h6.4l0.7-5.1h-18.1L330.7,12z M317,33h5.5l3.3-26.1h-5.5L317,33z M310,26.7c-0.3,0.2-0.7,0.4-1.2,0.7
		s-1.1,0.5-1.9,0.7c-0.8,0.2-1.7,0.3-2.7,0.3c-1.2,0-2.2-0.2-3.2-0.5c-0.9-0.4-1.7-0.9-2.4-1.5c-0.6-0.7-1.1-1.5-1.5-2.4
		c-0.3-0.9-0.5-1.9-0.5-3c0-1.4,0.2-2.7,0.6-3.9c0.4-1.2,1-2.1,1.8-3c0.8-0.8,1.7-1.4,2.8-1.9c1.1-0.4,2.3-0.6,3.6-0.5
		c1.3,0.1,2.4,0.4,3.4,1c0.9,0.5,1.7,1.1,2.2,1.5l2.7-4.7c-0.9-0.6-2.1-1.3-3.5-1.9c-1.5-0.6-3.2-0.9-5.3-0.9
		c-1.9,0-3.6,0.3-5.2,0.8c-1.5,0.5-2.8,1.3-3.9,2.2c-1.1,0.9-2,2-2.7,3.3c-0.7,1.2-1.2,2.6-1.6,4c-0.3,1.4-0.5,2.9-0.5,4.4
		c0,2.3,0.4,4.2,1.2,5.8c0.8,1.6,1.8,2.8,3.1,3.7c1.3,0.9,2.7,1.6,4.2,2c1.5,0.4,2.9,0.6,4.3,0.6c1.2,0,2.3-0.1,3.4-0.4
		c1-0.2,1.9-0.5,2.7-0.9c0.7-0.3,1.3-0.6,1.6-0.8L310,26.7z"/>
</g>
<g>
	<path class="st2" d="M111.1,131.4c-0.3-0.1-0.6-0.2-0.9-0.3H97.8c4.1,3.2,8.2,4.4,12.4,4.6L111.1,131.4z"/>
	<path class="st2" d="M86,138.3c-7.7-6.7-15.2-14.1-22.4-21.3c-3.9-3.9-7.9-7.9-11.9-11.7c-1.1-1-2.2-2.1-3.3-3.1
		c-5.9-5.5-11.3-10.5-13.7-16.8l-3.7,2.5c2.3,6,7.4,10.9,12.7,15.8c1.5,1.4,3.1,2.9,4.6,4.4c3.7,3.7,7.3,7.5,10.9,11.2
		C66.4,127,74,134.9,82,141.8c8.4,7.3,17.3,5,26.6,2.3l0.4-2.2C101,143.8,93.3,144.7,86,138.3z"/>
	<path class="st2" d="M81.7,142.1c-8-6.9-15.5-14.8-22.8-22.4c-3.6-3.7-7.2-7.6-10.9-11.2c-1.5-1.5-3.1-3-4.6-4.4
		c-5.3-5-10.4-9.9-12.8-15.9l-3.7,2.5c2,6.6,7.6,11.8,13.6,17.5c1.3,1.2,2.7,2.5,4,3.8c3.8,3.7,7.6,7.6,11.2,11.3
		c7.2,7.4,14.7,15.1,22.6,21.7c8.4,7.1,17.3,4.9,26.8,2.6c0.9-0.2,1.9-0.4,2.8-0.7l0.5-2.4C99.1,147.2,90.2,149.6,81.7,142.1z"/>
	<path class="st2" d="M78.1,145.4c-7.9-6.7-15.4-14.4-22.6-21.8c-3.7-3.8-7.5-7.6-11.2-11.3c-1.3-1.3-2.7-2.6-4-3.8
		c-5.9-5.5-11.5-10.8-13.7-17.6l-4.3,2.9c0.4,1.8,1.1,3.6,2.3,5.4c3,4.6,7.7,8.8,12.2,12.8c1.4,1.3,2.8,2.4,4,3.6
		c4,3.7,8.1,7.7,12,11.5c7.1,6.9,14.4,14,22,20.4c8.1,6.8,16.9,5.3,26.3,3.6c2-0.4,4.1-0.7,6.2-1l0.5-2.7c-0.9,0.2-1.8,0.4-2.7,0.6
		C95.6,150.4,86.6,152.6,78.1,145.4z"/>
	<path class="st2" d="M74.6,147.8c-7.6-6.4-14.9-13.5-22-20.4c-3.9-3.8-8-7.8-12-11.5c-1.3-1.2-2.6-2.4-4-3.6
		c-4.4-3.8-9.3-8.2-12.3-12.9c-1.1-1.8-1.9-3.6-2.3-5.4l-3.6,2.5c0.4,2.2,1.2,4.3,2.5,6.4c3.1,4.9,8.5,9.4,13.2,13.3
		c1.1,0.9,2.2,1.8,3.2,2.7c4.8,4.2,9.7,8.6,14.4,12.8c6.5,5.8,13.2,11.9,19.9,17.6c7.8,6.6,16.4,5.9,25.5,5.1c2.9-0.3,6-0.5,9-0.5
		c0.2,0,0.3,0,0.5,0c0,0,0.1,0,0.1,0l0.7-3.3c-2,0.3-4.1,0.6-6.1,1C91.8,153.1,82.9,154.7,74.6,147.8z"/>
	<path class="st2" d="M80.9,167.2c-7.9-4.6-15.4-8.9-22.4-15.2c-4.3-3.9-8.9-6.9-13.6-9.6l55.6,41.4l0.5-2.7
		c-4.3-3.7-8.8-7.3-13.7-10.2C85.2,169.6,83,168.4,80.9,167.2z"/>
	<path class="st2" d="M9.3,114.1c-1.5-2.3-2.8-5-3.2-9.4l-3.6,2.4c0.1,1.4,0.3,2.8,0.7,4.2l10.1,7.5
		C11.8,117.3,10.4,115.8,9.3,114.1z"/>
	<path class="st2" d="M84.7,163.8c-8.2-3-16-5.8-23-12c-8.1-7.2-16.6-12.2-25.6-17.5c-3.2-1.9-6.6-3.9-9.9-6
		c-0.2-0.1-0.5-0.3-0.7-0.4l17.3,12.9c5.6,3,11,6.3,16.1,10.9c6.9,6.3,14.4,10.6,22.3,15.2c2.1,1.2,4.3,2.5,6.5,3.8
		c4.9,2.9,9.3,6.4,13.6,10.1l1.6-8c-3.2-2.4-6.7-4.4-10.5-6C89.7,165.7,87.1,164.8,84.7,163.8z"/>
	<path class="st2" d="M55.8,102.7l-1.1-1c-6.9-6.1-13.2-11.7-16-18.9L35,85.2c2.4,6.3,7.8,11.3,13.7,16.8c1.1,1,2.2,2,3.3,3.1
		c4,3.8,8,7.8,11.9,11.7c7.2,7.2,14.7,14.7,22.4,21.3c7.2,6.2,14.9,5.4,22.9,3.4l0.5-2.2c-6.4,0.9-12.5,0.4-18.4-4.7
		c-1.3-1.1-2.6-2.3-3.9-3.4h-0.8l0.1-0.6c-5.4-4.8-10.9-9.7-16.1-14.5C65.7,111.6,60.7,107,55.8,102.7z"/>
	<path class="st2" d="M0,108.9l2.8,2.1c-0.3-1.2-0.5-2.4-0.5-3.6L0,108.9z"/>
	<path class="st2" d="M106.1,154.2c-3,0-6.1,0.3-9,0.5c-9.2,0.8-17.9,1.5-25.8-5.2c-6.7-5.7-13.5-11.7-20-17.6
		c-4.7-4.2-9.6-8.6-14.4-12.8c-1-0.9-2.1-1.8-3.2-2.7c-4.7-4-10.1-8.5-13.2-13.4c-1.2-1.9-2.1-3.9-2.5-6.4l-3.6,2.4
		c0.3,2.6,1.1,5,2.7,7.5c3.4,5.2,9.2,9.8,14.3,13.8c0.7,0.6,1.4,1.1,2.1,1.7c11.1,8.9,23,18.3,34.7,28.4c7.5,6.4,15.8,6.7,24.6,7
		c3,0.1,6,0.2,9.1,0.6c1.3,0.1,2.5,0.4,3.7,0.7l0.9-4.4c0,0,0,0,0,0C106.4,154.2,106.2,154.2,106.1,154.2z"/>
	<path class="st2" d="M92.9,157.8c-8.9-0.3-17.3-0.6-24.9-7.1c-11.7-10-23.5-19.5-34.7-28.4c-0.7-0.5-1.4-1.1-2.1-1.6
		c-5.2-4.1-11-8.7-14.4-13.9c-1.6-2.4-2.4-4.9-2.8-7.4l-3.6,2.4c0.3,2.9,1.1,5.7,2.9,8.5c3.6,5.6,10.4,10.4,15.8,14.3l0.8,0.5
		c2.8,2,5.6,4,8.4,5.9c9.3,6.5,18.1,12.7,26.7,20.1c7.2,6.3,15.3,7.8,23.8,9.3c2.7,0.5,5.6,1,8.4,1.7c2.5,0.6,4.9,1.5,7.1,2.6
		l1.2-5.7c-1.2-0.3-2.4-0.5-3.6-0.7C98.8,158,95.8,157.9,92.9,157.8z"/>
	<path class="st2" d="M88.8,160.8c-8.6-1.6-16.6-3.1-24-9.4c-8.6-7.5-17.4-13.6-26.7-20.1c-2.7-1.9-5.6-3.9-8.4-5.9l-0.8-0.5
		c-5.4-3.9-12.2-8.7-15.9-14.4c-1.8-2.8-2.6-5.6-2.9-8.4l-3.6,2.4c0.3,4.4,1.6,7.2,3.1,9.5c2.2,3.4,5.7,6.4,9.4,9.1l0.4,0.3
		c2.3,1.6,4.7,3.2,6.9,4.6c3.3,2.1,6.7,4.1,9.9,6c9,5.3,17.5,10.4,25.6,17.5c7,6.2,14.7,9,22.9,12c2.5,0.9,5.1,1.8,7.7,2.9
		c3.8,1.5,7.2,3.6,10.4,5.9l1.4-7.1c-2.2-1.1-4.6-2-7.2-2.6C94.3,161.9,91.5,161.3,88.8,160.8z"/>
	<path class="st2" d="M109.6,138.9l0.6-2.8c-4.4-0.2-8.7-1.4-13-4.9h-9.4c1.2,1,2.4,2.1,3.6,3.1C97.2,139.3,103.3,139.7,109.6,138.9
		z"/>
	<path class="st2" d="M69.2,62l-2.7,1.8c3,6.7,6.5,13.3,11.5,18.3c4.7,4.6,10.6,6.7,16.7,7.8l0.3-1.6c-5.1-1.1-10-3.2-13.8-7.3
		C76.2,75.6,72.5,68.9,69.2,62z"/>
	<path class="st2" d="M66.2,64l-2.5,1.7c2.6,6.1,5.7,12.1,10.2,16.8c5.7,5.8,13.4,8,20.5,9.2l0.3-1.4c-6.2-1.1-12.1-3.2-16.9-7.9
		C72.8,77.4,69.2,70.7,66.2,64z"/>
	<path class="st2" d="M72.4,59.8l-2.8,1.9c3.3,6.9,7,13.6,12,19c3.7,4,8.5,6.1,13.5,7.2l0.4-2c-3.8-1.2-7.3-3-10.2-6.1
		C80,74.1,76,67.1,72.4,59.8z"/>
	<path class="st2" d="M97,78.5l1-5.1C92.1,67.5,87.7,60,83.5,52.3l-3.8,2.6c4.2,7.9,8.7,15.7,14.9,21.7C95.4,77.3,96.2,77.9,97,78.5
		z"/>
	<path class="st2" d="M90.7,79c1.7,1.6,3.5,2.7,5.5,3.6l0.7-3.7c-0.9-0.6-1.8-1.3-2.6-2.1c-6.2-6-10.8-13.8-14.9-21.7L76,57.4
		C80.1,65.3,84.5,73.1,90.7,79z"/>
	<path class="st2" d="M75.7,57.6l-3,2c3.6,7.2,7.6,14.3,12.9,20c2.8,3,6.2,4.8,10,6l0.5-2.6c-2.1-0.9-4-2.1-5.7-3.7
		C84.2,73.4,79.8,65.6,75.7,57.6z"/>
	<path class="st2" d="M63.4,65.9l-2.5,1.7c2.2,5.7,5.1,11.3,9.4,15.7c5.7,5.8,13.7,8.2,21.5,9.9c0.7,0.2,1.5,0.3,2.3,0.4l0.3-1.5
		c-7.2-1.2-14.9-3.4-20.7-9.3C69.1,78.1,66,72.1,63.4,65.9z"/>
	<path class="st2" d="M70.5,97.9C61.5,92.7,53,86.3,48.9,75.7l-2.9,2c3.3,8.5,10.4,15,20.2,21.6c3.4,2.3,6.9,4.5,10.4,6.6
		c3.1,1.9,6.4,3.9,9.5,6c1.3,0.9,2.5,1.8,3.7,2.7l1.1-5.3c-3.4-2-6.9-3.9-10.4-5.9C77.2,101.7,73.8,99.8,70.5,97.9z"/>
	<path class="st2" d="M75,96.4c-11.8-5.7-19.1-12.8-22.9-22.8l-2.8,1.9c3.3,8.6,10,15.4,21.4,22c3.4,1.9,6.7,3.8,10,5.6
		c3.5,1.9,6.9,3.8,10.3,5.8l1-4.9c-1.7-0.7-3.4-1.5-5.1-2.2C83,100.1,79,98.3,75,96.4z"/>
	<path class="st2" d="M71.1,108.7c-3.2-2.4-6.6-4.8-9.8-7.3c-8.9-7-16-13.1-19.1-21.1l-3.3,2.2c2.8,7.2,9.1,12.8,16,18.9l1.1,1
		c4.9,4.4,9.9,8.9,14.7,13.3c5.2,4.8,10.6,9.6,15.9,14.4l1.5-7.4c-2.6-2.5-5.3-5.1-8.2-7.3C77.1,113.1,74,110.9,71.1,108.7z"/>
	<path class="st2" d="M69.9,83.6c-4.3-4.4-7.2-10-9.4-15.7l-2.2,1.5c1.9,4.6,4.1,8.4,6.8,11.6c5.2,6.3,12.4,10.8,21.9,13.5
		c2.1,0.6,4.3,1.1,6.5,1.6l0.4-2.1c-0.8-0.1-1.5-0.2-2.3-0.4C83.8,91.9,75.7,89.5,69.9,83.6z"/>
	<path class="st2" d="M76.4,106.2c-3.4-2.1-7-4.3-10.4-6.6C56.2,93,49,86.5,45.7,77.9l-3.2,2.1c3.1,8,10.2,14.1,19,21.1
		c3.2,2.5,6.5,4.9,9.8,7.3c2.9,2.1,6,4.4,8.9,6.6c2.9,2.2,5.5,4.7,8,7.2l1.4-7.2c-1.2-1-2.5-1.9-3.8-2.8
		C82.8,110.2,79.5,108.2,76.4,106.2z"/>
	<path class="st2" d="M55.1,71.6l-2.7,1.8c3.8,9.9,11,17,22.8,22.7c4,1.9,8,3.6,11.8,5.3c1.7,0.7,3.3,1.5,5,2.2l0.8-3.9
		c-4.2-1.3-8.4-2.7-12.6-4.3C67.6,90.5,59.7,83.1,55.1,71.6z"/>
	<path class="st2" d="M64.8,81.2c-2.7-3.2-4.9-7.1-6.8-11.7l-2.6,1.8C59.9,82.9,67.6,90.1,80.3,95c4.2,1.6,8.4,3,12.6,4.3l0.6-2.8
		c-2.2-0.5-4.4-1-6.5-1.6C77.3,92.1,70.1,87.7,64.8,81.2z"/>
	<path class="st2" d="M108.4,56.1c-1.2-0.8-2.3-1.7-3.3-2.9c-2.9-3.2-5.4-6.7-7.6-10.5l-2.8,1.9c2.3,4,4.8,7.9,7.7,11.4H108.4z"/>
	<path class="st2" d="M131.4,55.8c0.9,0,1.8,0.1,2.8,0.1l1.7-4.8c-1.5-0.1-3-0.1-4.4-0.3c-9-0.7-18.4-1.9-25.1-8.8
		c-1-1-1.9-2.1-2.8-3.2l-2.7,1.8c1.7,2.6,3.5,5,5.7,7.2C113.3,54.5,122.5,55.4,131.4,55.8z"/>
	<path class="st2" d="M151.4,6.3l-1.5,1c0.4,0.1,0.7,0.2,1.1,0.3L151.4,6.3z"/>
	<path class="st2" d="M137.9,45.3l1.7-4.8c-2.5-0.2-4.9-0.4-7.2-0.7c-7.6-1-15.3-2.3-21.4-6.1l-3.8,2.6c6.7,6.6,17.2,7.8,24.9,8.6
		C133.9,45.1,135.9,45.2,137.9,45.3z"/>
	<path class="st2" d="M131.5,50.4c1.5,0.1,3,0.2,4.5,0.3l1.7-5c-2-0.1-3.9-0.2-5.7-0.4c-7.8-0.8-18.4-2-25.2-8.8l-2.9,2
		c0.9,1.1,1.8,2.2,2.7,3.2C113.3,48.5,122.6,49.7,131.5,50.4z"/>
	<path class="st2" d="M109.2,56.1h19.7c-8.2-0.5-16.4-1.9-22.6-8.1c-2.1-2.1-4-4.6-5.7-7.2l-2.6,1.8c2.2,3.7,4.7,7.3,7.5,10.4
		C106.6,54.2,107.9,55.2,109.2,56.1z"/>
	<path class="st2" d="M101.5,56.1h0.4c-2.8-3.5-5.2-7.3-7.5-11.2L91.4,47c2.7,5,5.7,9.8,9.2,14L101.5,56.1z"/>
	<path class="st2" d="M150.8,8c-0.5-0.1-0.9-0.3-1.4-0.4l-4.8,3.2c1.6,0.4,3.1,0.8,4.7,1.2L150.8,8z"/>
	<path class="st2" d="M149.3,12.4c-1.7-0.4-3.3-0.9-5-1.3l-4.9,3.3c2.8,0.7,5.7,1.4,8.5,2L149.3,12.4z"/>
	<path class="st2" d="M100.5,61.4c-3.6-4.3-6.7-9.1-9.4-14.2l-3.3,2.2c3.4,6.3,7.1,12.3,11.6,17.4L100.5,61.4z"/>
	<path class="st2" d="M147.8,16.8c-2.9-0.7-5.9-1.3-8.8-2.1l-5.1,3.5c4.2,1,8.3,1.9,12.5,2.8L147.8,16.8z"/>
	<path class="st2" d="M144.7,25.5l1.4-4.1c-4.2-0.9-8.5-1.8-12.8-2.9l-5.3,3.6c0.8,0.2,1.6,0.4,2.4,0.6
		C135.1,23.9,139.9,24.7,144.7,25.5z"/>
	<path class="st2" d="M143.1,30.2l1.5-4.3c-4.8-0.8-9.6-1.7-14.2-2.8c-0.9-0.2-1.8-0.4-2.8-0.7l-5.5,3.7c2.5,0.7,5,1.3,7.6,1.9
		C134,29,138.5,29.6,143.1,30.2z"/>
	<path class="st2" d="M139.7,40.2l1.6-4.7c-3.9-0.4-7.8-0.8-11.5-1.5c-4.5-0.8-9.3-1.9-13.8-3.7l-4.8,3.2c6,3.7,13.7,5,21.1,6
		C134.7,39.8,137.1,40,139.7,40.2z"/>
	<path class="st2" d="M141.4,35.1l1.6-4.5c-4.6-0.6-9.1-1.2-13.4-2.2c-2.6-0.6-5.3-1.2-7.9-2l-5.3,3.6c4.4,1.8,9.1,2.8,13.5,3.6
		C133.6,34.3,137.5,34.7,141.4,35.1z"/>
	<path class="st2" d="M99.3,67.3c-4.7-5.2-8.4-11.3-11.8-17.7l-3.6,2.4c4.1,7.6,8.5,15,14.3,20.9L99.3,67.3z"/>
	<path d="M150.9,7.6c-0.4-0.1-0.7-0.2-1.1-0.3l-0.4,0.3c0.5,0.1,0.9,0.3,1.4,0.4L150.9,7.6z"/>
	<path d="M149.4,12.1c-1.6-0.4-3.1-0.8-4.7-1.2l-0.4,0.3c1.7,0.4,3.4,0.9,5,1.3L149.4,12.1z"/>
	<path d="M147.9,16.4c-2.8-0.6-5.7-1.3-8.5-2l-0.4,0.3c2.9,0.7,5.9,1.4,8.8,2.1L147.9,16.4z"/>
	<path d="M146.3,21c-4.1-0.9-8.3-1.8-12.5-2.8l-0.4,0.3c4.3,1.1,8.5,2,12.8,2.9L146.3,21z"/>
	<path d="M144.6,25.9l0.1-0.4c-4.8-0.8-9.6-1.7-14.3-2.8c-0.8-0.2-1.6-0.4-2.4-0.6l-0.4,0.3c1,0.2,1.9,0.5,2.8,0.7
		C135,24.2,139.8,25.1,144.6,25.9z"/>
	<path d="M143,30.6l0.1-0.4c-4.7-0.6-9.1-1.2-13.4-2.2c-2.5-0.5-5.1-1.1-7.6-1.9l-0.4,0.3c2.6,0.8,5.3,1.4,7.9,2
		C133.9,29.3,138.3,30,143,30.6z"/>
	<path d="M141.3,35.5l0.1-0.4c-4-0.4-7.8-0.8-11.5-1.5c-4.4-0.8-9.1-1.8-13.5-3.6l-0.4,0.3c4.5,1.8,9.3,2.9,13.8,3.7
		C133.5,34.6,137.3,35.1,141.3,35.5z"/>
	<path d="M139.5,40.6l0.1-0.4c-2.5-0.2-4.9-0.4-7.3-0.7c-7.5-1-15.1-2.3-21.1-6l-0.4,0.2c6.1,3.8,13.9,5.1,21.4,6.1
		C134.6,40.2,137,40.4,139.5,40.6z"/>
	<path d="M137.7,45.7l0.1-0.4c-2-0.1-4-0.2-5.8-0.4c-7.7-0.8-18.2-2-24.9-8.6l-0.3,0.2c6.8,6.8,17.4,7.9,25.2,8.8
		C133.8,45.5,135.8,45.6,137.7,45.7z"/>
	<path d="M131.5,50.8c1.5,0.1,2.9,0.2,4.4,0.3l0.1-0.4c-1.5-0.1-3-0.2-4.5-0.3c-8.9-0.7-18.2-1.9-24.9-8.7c-1-1-1.9-2.1-2.7-3.2
		l-0.3,0.2c0.9,1.1,1.8,2.2,2.8,3.2C113.1,48.9,122.4,50.1,131.5,50.8z"/>
	<path d="M128.9,56.1h5.3l0.1-0.2c-0.9,0-1.8,0-2.8-0.1c-8.9-0.4-18.2-1.4-24.9-8.1c-2.1-2.1-4-4.6-5.7-7.2l-0.3,0.2
		c1.7,2.6,3.6,5.1,5.7,7.2C112.5,54.2,120.7,55.6,128.9,56.1z"/>
	<path d="M108.4,56.1h0.7c-1.3-0.9-2.6-1.9-3.7-3.1c-2.9-3.1-5.3-6.7-7.5-10.4l-0.3,0.2c2.2,3.7,4.7,7.3,7.6,10.5
		C106.2,54.3,107.3,55.2,108.4,56.1z"/>
	<path d="M102.5,56.1c-2.9-3.5-5.4-7.4-7.7-11.4l-0.3,0.2c2.2,4,4.7,7.8,7.5,11.2H102.5z"/>
	<path d="M100.6,60.9c-3.5-4.2-6.5-9-9.2-14L91,47.2c2.8,5.1,5.8,10,9.4,14.2L100.6,60.9z"/>
	<path d="M99.4,66.8c-4.6-5.1-8.3-11.1-11.6-17.4l-0.3,0.2c3.4,6.3,7.2,12.5,11.8,17.7L99.4,66.8z"/>
	<path d="M98.2,73c-5.8-5.9-10.2-13.3-14.3-20.9l-0.3,0.2c4.1,7.7,8.6,15.2,14.5,21.1L98.2,73z"/>
	<path d="M97,78.9l0.1-0.4c-0.8-0.6-1.6-1.2-2.4-2c-6.2-5.9-10.7-13.7-14.9-21.7l-0.3,0.2c4.2,8,8.7,15.8,14.9,21.7
		C95.2,77.6,96.1,78.3,97,78.9z"/>
	<path d="M76,57.4l-0.3,0.2c4.1,8,8.5,15.8,14.7,21.6c1.7,1.6,3.6,2.8,5.7,3.7l0.1-0.4c-2-0.9-3.9-2.1-5.5-3.6
		C84.5,73.1,80.1,65.3,76,57.4z"/>
	<path d="M72.7,59.6l-0.3,0.2c3.6,7.2,7.6,14.3,13,20c2.9,3.1,6.4,4.9,10.2,6.1l0.1-0.4c-3.7-1.2-7.1-3-10-6
		C80.3,73.9,76.3,66.8,72.7,59.6z"/>
	<path d="M69.5,61.8L69.2,62c3.3,6.9,7,13.6,12.1,19.1c3.8,4.1,8.6,6.2,13.8,7.3l0.1-0.4c-5.1-1.1-9.8-3.2-13.5-7.2
		C76.5,75.4,72.8,68.7,69.5,61.8z"/>
	<path d="M66.6,63.8L66.2,64c3,6.7,6.5,13.4,11.6,18.3c4.8,4.7,10.7,6.8,16.9,7.9l0.1-0.4c-6.1-1.1-12-3.2-16.7-7.8
		C73.1,77.1,69.5,70.5,66.6,63.8z"/>
	<path d="M63.7,65.7l-0.3,0.2c2.6,6.1,5.7,12.2,10.2,16.8c5.8,5.9,13.5,8.1,20.7,9.3l0.1-0.4c-7.1-1.2-14.8-3.4-20.5-9.2
		C69.4,77.9,66.3,71.8,63.7,65.7z"/>
	<path d="M70.2,83.3c-4.3-4.4-7.2-10-9.4-15.7l-0.3,0.2c2.2,5.7,5.1,11.3,9.4,15.7c5.8,5.9,13.8,8.3,21.7,10
		c0.7,0.2,1.5,0.3,2.3,0.4l0.1-0.4c-0.8-0.1-1.5-0.2-2.3-0.4C83.9,91.5,75.9,89.2,70.2,83.3z"/>
	<path d="M65.1,81c-2.6-3.2-4.9-7-6.8-11.6L58,69.6c1.9,4.6,4.1,8.4,6.8,11.7c5.3,6.4,12.5,10.9,22.1,13.6c2.1,0.6,4.3,1.1,6.5,1.6
		l0.1-0.4c-2.2-0.5-4.4-1-6.5-1.6C77.5,91.8,70.3,87.3,65.1,81z"/>
	<path d="M55.4,71.4l-0.3,0.2c4.6,11.5,12.5,18.9,25,23.8c4.2,1.6,8.5,3,12.6,4.3l0.1-0.4c-4.1-1.3-8.4-2.7-12.6-4.3
		C67.6,90.1,59.9,82.9,55.4,71.4z"/>
	<path d="M75.2,96.1c-11.7-5.7-19-12.8-22.8-22.7l-0.3,0.2c3.8,10,11.1,17.1,22.9,22.8c4,1.9,8,3.7,11.8,5.3
		c1.7,0.7,3.4,1.5,5.1,2.2l0.1-0.4c-1.6-0.7-3.3-1.5-5-2.2C83.2,99.7,79.2,98,75.2,96.1z"/>
	<path d="M70.7,97.5c-11.4-6.6-18.1-13.4-21.4-22l-0.3,0.2C53,86.3,61.5,92.7,70.5,97.9c3.4,2,6.7,3.8,10,5.6
		c3.5,1.9,7,3.9,10.4,5.9l0.1-0.4c-3.4-2-6.8-3.9-10.3-5.8C77.4,101.3,74,99.5,70.7,97.5z"/>
	<path d="M76.6,105.9c-3.4-2.1-7-4.3-10.4-6.6C56.4,92.7,49.3,86.2,46,77.7l-0.3,0.2C49,86.5,56.2,93,66,99.6
		c3.4,2.3,7,4.5,10.4,6.6c3.1,1.9,6.4,3.9,9.5,6c1.3,0.9,2.6,1.8,3.8,2.8l0.1-0.4c-1.2-0.9-2.4-1.8-3.7-2.7
		C83,109.8,79.7,107.8,76.6,105.9z"/>
	<path d="M111.2,131.1h-1c0.3,0.1,0.6,0.2,0.9,0.3L111.2,131.1z"/>
	<path d="M110.3,135.7c-4.2-0.2-8.4-1.3-12.4-4.6h-0.6c4.3,3.5,8.6,4.8,13,4.9L110.3,135.7z"/>
	<path d="M71.3,108.4c-3.2-2.4-6.6-4.8-9.8-7.3c-8.9-6.9-15.9-13.1-19-21.1l-0.3,0.2c3.2,8,10.2,14.2,19.1,21.1
		c3.2,2.5,6.5,4.9,9.8,7.3c2.9,2.1,6,4.4,8.9,6.6c2.9,2.2,5.6,4.8,8.2,7.3l0.1-0.5c-2.5-2.5-5.2-4.9-8-7.2
		C77.3,112.8,74.2,110.6,71.3,108.4z"/>
	<path d="M109.5,139.3l0.1-0.4c-6.3,0.9-12.4,0.4-18.2-4.6c-1.2-1-2.4-2.1-3.6-3.1h-0.6c1.3,1.1,2.6,2.3,3.9,3.4
		C97.1,139.6,103.2,140.1,109.5,139.3z"/>
	<path d="M56,102.4l-1.1-1c-6.9-6.1-13.1-11.6-16-18.9l-0.3,0.2c2.9,7.2,9.2,12.8,16,18.9l1.1,1c4.9,4.4,9.9,8.9,14.7,13.3
		c5.3,4.8,10.7,9.7,16.1,14.5l0.1-0.4c-5.4-4.7-10.7-9.6-15.9-14.4C65.9,111.3,61,106.8,56,102.4z"/>
	<path d="M86.2,138.1c-7.7-6.6-15.2-14.1-22.4-21.3C60,112.9,56,108.8,52,105c-1.1-1-2.2-2.1-3.3-3.1C42.8,96.5,37.5,91.4,35,85.2
		l-0.3,0.2c2.5,6.3,7.9,11.3,13.7,16.8c1.1,1,2.2,2,3.3,3.1c4,3.8,8,7.8,11.9,11.7c7.2,7.2,14.7,14.7,22.4,21.3
		c7.3,6.3,15,5.5,23,3.6l0.1-0.4C101.1,143.4,93.5,144.3,86.2,138.1z"/>
	<path d="M82,141.8c-8-6.9-15.5-14.8-22.8-22.4c-3.6-3.7-7.2-7.6-10.9-11.2c-1.5-1.5-3.1-3-4.6-4.4c-5.3-5-10.4-9.8-12.7-15.8
		l-0.3,0.2c2.3,6,7.4,10.9,12.8,15.9c1.5,1.4,3.1,2.9,4.6,4.4c3.7,3.7,7.3,7.5,10.9,11.2c7.3,7.6,14.8,15.5,22.8,22.4
		c8.5,7.4,17.4,5.1,26.8,2.4l0.1-0.4C99.2,146.8,90.4,149.2,82,141.8z"/>
	<path d="M78.3,145.1c-7.8-6.7-15.3-14.3-22.6-21.7c-3.7-3.8-7.5-7.6-11.2-11.3c-1.3-1.3-2.7-2.6-4-3.8
		c-6.1-5.7-11.6-10.9-13.6-17.5l-0.3,0.2c2.1,6.8,7.8,12.1,13.7,17.6c1.3,1.2,2.7,2.5,4,3.8c3.8,3.7,7.6,7.5,11.2,11.3
		c7.2,7.4,14.7,15.1,22.6,21.8c8.5,7.2,17.6,5,27.1,2.7c0.9-0.2,1.8-0.4,2.7-0.6l0.1-0.4c-0.9,0.2-1.9,0.4-2.8,0.7
		C95.6,150,86.7,152.2,78.3,145.1z"/>
	<path d="M74.9,147.5c-7.5-6.4-14.9-13.5-22-20.4c-3.9-3.8-8-7.8-12-11.5c-1.3-1.2-2.6-2.4-4-3.6c-4.6-4-9.3-8.2-12.2-12.8
		c-1.2-1.8-1.8-3.6-2.3-5.4L22,94c0.4,1.8,1.1,3.6,2.3,5.4c3,4.7,8,9,12.3,12.9c1.4,1.3,2.8,2.4,4,3.6c4,3.7,8.1,7.7,12,11.5
		c7.1,6.9,14.5,14,22,20.4c8.3,7,17.2,5.4,26.6,3.7c2-0.4,4-0.7,6.1-1l0.1-0.4c-2.1,0.3-4.2,0.6-6.2,1
		C91.8,152.8,83,154.3,74.9,147.5z"/>
	<path d="M106.1,153.8c-3,0-6.1,0.3-9,0.5c-9.1,0.8-17.7,1.5-25.5-5.1c-6.7-5.7-13.4-11.7-19.9-17.6c-4.7-4.2-9.6-8.6-14.4-12.8
		c-1-0.9-2.1-1.8-3.2-2.7c-4.7-4-10-8.4-13.2-13.3c-1.4-2.1-2.2-4.2-2.5-6.4L18,96.7c0.4,2.5,1.3,4.5,2.5,6.4
		c3.2,4.9,8.5,9.4,13.2,13.4c1.1,0.9,2.2,1.8,3.2,2.7c4.8,4.2,9.7,8.6,14.4,12.8c6.5,5.8,13.2,11.9,20,17.6c7.9,6.7,16.6,6,25.8,5.2
		c2.9-0.2,6-0.5,9-0.5c0.2,0,0.3,0,0.5,0c0,0,0,0,0,0l0.1-0.4c0,0-0.1,0-0.1,0C106.4,153.8,106.2,153.8,106.1,153.8z"/>
	<path d="M92.9,157.4c-8.8-0.3-17.1-0.6-24.6-7c-11.7-10-23.6-19.5-34.7-28.4c-0.7-0.5-1.4-1.1-2.1-1.7c-5.1-4-11-8.6-14.3-13.8
		c-1.6-2.4-2.4-4.9-2.7-7.5L14,99.4c0.3,2.6,1.2,5,2.8,7.4c3.4,5.3,9.3,9.9,14.4,13.9c0.7,0.6,1.4,1.1,2.1,1.6
		c11.1,8.9,23,18.3,34.7,28.4c7.6,6.5,16,6.8,24.9,7.1c2.9,0.1,6,0.2,9.1,0.6c1.3,0.1,2.5,0.4,3.6,0.7l0.1-0.4
		c-1.2-0.3-2.4-0.5-3.7-0.7C98.9,157.6,95.8,157.5,92.9,157.4z"/>
	<path d="M88.8,160.5c-8.5-1.6-16.5-3-23.8-9.3c-8.6-7.5-17.4-13.6-26.7-20.1c-2.7-1.9-5.6-3.9-8.4-5.9l-0.8-0.5
		c-5.4-3.9-12.1-8.7-15.8-14.3c-1.8-2.8-2.6-5.6-2.9-8.5l-0.4,0.3c0.3,2.9,1.2,5.7,2.9,8.4c3.7,5.6,10.5,10.5,15.9,14.4l0.8,0.5
		c2.8,2,5.6,4,8.4,5.9c9.3,6.5,18.1,12.6,26.7,20.1c7.3,6.4,15.4,7.8,24,9.4c2.7,0.5,5.6,1,8.4,1.7c2.6,0.6,4.9,1.5,7.2,2.6l0.1-0.4
		c-2.2-1.1-4.6-2-7.1-2.6C94.4,161.5,91.6,161,88.8,160.5z"/>
	<path d="M84.8,163.5c-8.2-3-15.9-5.8-22.9-12c-8.1-7.2-16.6-12.2-25.6-17.5c-3.2-1.9-6.6-3.9-9.9-6c-2.3-1.4-4.7-3-6.9-4.6l6,4.5
		c0.2,0.1,0.5,0.3,0.7,0.4c3.3,2.1,6.7,4.1,9.9,6c9,5.3,17.5,10.3,25.6,17.5c7,6.2,14.8,9.1,23,12c2.5,0.9,5.1,1.8,7.7,2.9
		c3.8,1.5,7.3,3.6,10.5,6l0.1-0.4c-3.2-2.3-6.7-4.4-10.4-5.9C89.9,165.3,87.3,164.4,84.8,163.5z"/>
	<path d="M9.7,113.9c-1.5-2.3-2.8-5-3.1-9.5l-0.4,0.3c0.4,4.4,1.7,7.2,3.2,9.4c1.1,1.6,2.5,3.2,4,4.7l5.7,4.3
		C15.3,120.4,11.9,117.3,9.7,113.9z"/>
	<path d="M2.2,107.4c0.1,1.2,0.3,2.4,0.5,3.6l0.5,0.4c-0.3-1.4-0.6-2.8-0.7-4.2L2.2,107.4z"/>
	<path d="M81.1,166.8c-7.9-4.6-15.4-8.9-22.3-15.2c-5.1-4.6-10.5-8-16.1-10.9l2.2,1.6c4.7,2.6,9.3,5.6,13.6,9.6
		c6.9,6.3,14.4,10.6,22.4,15.2c2.1,1.2,4.3,2.5,6.5,3.8c4.9,2.9,9.4,6.5,13.7,10.2l0.1-0.4c-4.3-3.7-8.8-7.2-13.6-10.1
		C85.4,169.3,83.2,168.1,81.1,166.8z"/>
</g>
</svg>
