<?xml version="1.0" encoding="UTF-8"?>
<svg xmlns="http://www.w3.org/2000/svg" xml:space="preserve" fill-rule="evenodd" stroke-linejoin="round" stroke-miterlimit="2" clip-rule="evenodd" viewBox="0 0 240 100">
  <g fill="#5a5a5a" fill-rule="nonzero">
    <path d="M111.21366022 42.03761696h-6.09239878V31.03139464h1.82818364v9.46108234h4.26421514v1.54513998ZM119.30592486 38.59005238h-5.35462924c.01856024.72384936.24592318 1.28529662.6728087 1.67970172.42688552.3944051 1.01617314.58928762 1.7632228.58928762.83985086 0 1.61010082-.25056324 2.31074988-.75168972v1.43377854c-.71456924.45008582-1.66114148.67744876-2.83971672.67744876-1.17857524 0-2.0648267-.35728462-2.71907516-1.07185386-.65888852-.71456924-.98833278-1.7168222-.98833278-3.01139894 0-1.22033578.36192468-2.21794868 1.08577404-2.98819864.72384936-.77024996 1.624021-1.15537494 2.69587486-1.15537494s1.90706466.34336444 2.49635228 1.03473338c.58928762.69136894.8816114 1.65186136.8816114 2.8768372v.68208882l-.00464006.00464006Zm-1.7168222-1.25745626c-.00464006-.64032828-.15776204-1.1368147-.45472588-1.49409932-.29696384-.35728462-.70528912-.5336069-1.2296159-.5336069s-.94657224.1856024-1.2992168.56144726c-.35728462.37584486-.57536744.86305116-.65424846 1.46625896h3.63780704ZM121.92755876 32.53013402c-.29232378 0-.54288702-.0928012-.74704966-.28304366-.2088027-.19024246-.31088402-.43152558-.31088402-.72384936s.10208132-.5336069.31088402-.72848942c.2088027-.19488252.45472588-.29232378.74704966-.29232378.29232378 0 .5568072.09744126.7656099.29232378.2088027.19488252.31552408.43616564.31552408.72848942 0 .29232378-.10672138.51504666-.31552408.70992918-.2088027.19488252-.464006.29696384-.7656099.29696384Zm.8816114 9.50748294h-1.78178304v-7.85562158h1.78178304v7.85562158ZM126.87386272 40.90080226h-.03248042v1.1368147h-1.78178304V30.40498654h1.78178304v5.15510666h.03248042c.60784786-1.0440135 1.49873938-1.56370022 2.6680345-1.56370022.99297284 0 1.76786286.35264456 2.32931012 1.05329362.56144726.70528912.83985086 1.6472213.83985086 2.82579654 0 1.31313698-.31552408 2.3664306-.94657224 3.15988086-.63104816.7888102-1.48945926 1.18785536-2.57987336 1.18785536-1.0208132 0-1.79570322-.4408057-2.31538994-1.31777704l.00464006-.00464006Zm-.0464006-3.12276038v.9744126c0 .57072738.1856024 1.05793368.54752708 1.45697884.36656474.39904516.83057074.59856774 1.392018.59856774.65888852 0 1.17857524-.2552033 1.5544201-.77024996.37584486-.51504666.56608732-1.2296159.56608732-2.15298784 0-.77489002-.17632228-1.37809782-.52432678-1.81426346-.35264456-.43616564-.82593068-.65424846-1.42449842-.65424846-.63568822 0-1.14609482.22272288-1.5312198.67744876-.38512498.45008582-.5800075 1.01153308-.5800075 1.68898184v-.00464006ZM141.54573244 42.03761696h-1.78178304v-4.42661724c0-1.46625896-.51968672-2.2040285-1.55906016-2.2040285-.54288702 0-.98833278.20416264-1.34097734.60784786-.35264456.40832528-.52896684.91873188-.52896684 1.54049992v4.48229796h-1.7864231v-7.85562158h1.7864231v1.30385686h.03248042c.58928762-.99297284 1.4384186-1.48945926 2.54739294-1.48945926.85377104 0 1.5080195.2784036 1.95810532.83057074.45008582.5568072.67744876 1.35953758.67744876 2.40355108v4.8024621l-.00464006.00464006ZM144.57105156 32.53013402c-.29232378 0-.54288702-.0928012-.74704966-.28304366-.2088027-.19024246-.31088402-.43152558-.31088402-.72384936s.10208132-.5336069.31088402-.72848942c.2088027-.19488252.45472588-.29232378.74704966-.29232378.29232378 0 .5568072.09744126.7656099.29232378.2088027.19488252.31552408.43616564.31552408.72848942 0 .29232378-.10672138.51504666-.31552408.70992918-.2088027.19488252-.464006.29696384-.7656099.29696384Zm.8816114 9.50748294h-1.78178304v-7.85562158h1.78178304v7.85562158ZM153.58204808 34.92440498l-4.2456549 5.72583404h4.22709466v1.38737794h-6.72344694v-.66816864l4.33381604-5.800075h-3.9208507v-1.38737794h6.32440178v.7424096h.00464006ZM154.6121414 37.08667294h4.18997418v1.31313698h-4.18997418zM161.16390612 31.03139464h1.8792243v11.00622232h-1.8792243zM172.44853204 42.03761696H170.666749v-4.42661724c0-1.46625896-.51968672-2.2040285-1.55906016-2.2040285-.54288702 0-.98833278.20416264-1.34097734.60784786-.35264456.40832528-.52896684.91873188-.52896684 1.54049992v4.48229796h-1.7864231v-7.85562158h1.7864231v1.30385686h.03248042c.58928762-.99297284 1.4384186-1.48945926 2.54739294-1.48945926.85377104 0 1.5080195.2784036 1.95810532.83057074.45008582.5568072.67744876 1.35953758.67744876 2.40355108v4.8024621l-.00464006.00464006ZM174.23495514 41.8009739v-1.66114148c.66352858.50576654 1.40129812.76096984 2.2040285.76096984 1.07649392 0 1.61010082-.31552408 1.61010082-.9512123 0-.18096234-.0464006-.32944426-.1392018-.45472588-.0928012-.12528162-.21808282-.23664306-.3712048-.33408432-.15776204-.09744126-.33872438-.1856024-.55216714-.25984336-.21344276-.07424096-.45008582-.1624021-.70992918-.25984336-.3248042-.12992168-.61248792-.26448342-.87233128-.40832528-.25984336-.14384186-.47328612-.30624396-.64496834-.4872063-.17168222-.18096234-.3016039-.38976504-.38976504-.61712798-.08816114-.232003-.12992168-.50112648-.12992168-.80737044 0-.38048492.08816114-.70992918.26912348-1.00225296.18096234-.28768372.42224546-.5336069.72384936-.72848942.3016039-.19952258.64496834-.34336444 1.03009332-.44544576.38512498-.09744126.77953008-.14848192 1.18785536-.14848192.72384936 0 1.37809782.11136144 1.9488252.32944426v1.55906016c-.55216714-.37584486-1.18785536-.56608732-1.9024246-.56608732-.22736294 0-.42688552.0232003-.60784786.0696009-.18096234.0464006-.33872438.11136144-.464006.19024246-.12992168.08352108-.22736294.18096234-.29696384.29696384-.0696009.1160015-.10672138.24128312-.10672138.38048492 0 .16704216.03712048.31088402.10672138.43152558.07424096.12064156.17632228.22272288.32016414.31088402.1392018.08816114.31088402.17168222.50576654.24592318s.42224546.15312198.67744876.24128312c.33872438.1392018.64032828.2784036.90945176.42224546.26912348.14384186.49648642.30624396.68672888.4872063s.33408432.38976504.43616564.63104816c.10208132.23664306.15312198.51968672.15312198.84913098 0 .39904516-.0928012.74704966-.2784036 1.0440135-.1856024.29696384-.43152558.54288702-.73776954.73776954-.30624396.19488252-.66352858.33872438-1.06257374.43152558-.39904516.0928012-.82593068.14384186-1.27137644.14384186-.8584111 0-1.60546076-.14384186-2.23186886-.43152558ZM185.71446358 41.95409588c-.3480045.17168222-.80737044.25984336-1.37345776.25984336-1.52657974 0-2.28754958-.73312948-2.28754958-2.19474838v-4.44517748h-1.31313698v-1.39665806h1.31313698V32.3584518l1.78178304-.50576654v2.32467006h1.8792243v1.39665806h-1.8792243v3.93013082c0 .464006.08352108.79809032.2552033.9976129.16704216.19952258.45008582.29696384.84449092.29696384.3016039 0 .56144726-.08816114.78417014-.25984336v1.41057824l-.00464006.00464006ZM188.07161406 32.53013402c-.29232378 0-.54288702-.0928012-.74704966-.28304366-.2088027-.19024246-.31088402-.43152558-.31088402-.72384936s.10208132-.5336069.31088402-.72848942c.2088027-.19488252.45472588-.29232378.74704966-.29232378.29232378 0 .5568072.09744126.7656099.29232378.2088027.19488252.31552408.43616564.31552408.72848942 0 .29232378-.10672138.51504666-.31552408.70992918-.2088027.19488252-.464006.29696384-.7656099.29696384Zm.8816114 9.50748294h-1.78178304v-7.85562158h1.78178304v7.85562158ZM195.37970856 41.95409588c-.3480045.17168222-.80737044.25984336-1.37345776.25984336-1.52657974 0-2.28754958-.73312948-2.28754958-2.19474838v-4.44517748h-1.31313698v-1.39665806h1.31313698V32.3584518l1.78178304-.50576654v2.32467006h1.8792243v1.39665806h-1.8792243v3.93013082c0 .464006.08352108.79809032.2552033.9976129.16704216.19952258.45008582.29696384.84449092.29696384.3016039 0 .56144726-.08816114.78417014-.25984336v1.41057824l-.00464006.00464006ZM203.7735771 42.03761696h-1.78178304v-1.24353608h-.03248042c-.51968672.9512123-1.31777704 1.42913848-2.40819114 1.42913848-1.856024 0-2.784036-1.1136144-2.784036-3.34548326v-4.69574072h1.78178304v4.51013832c0 1.41057824.54288702 2.11586736 1.63330112 2.11586736.52432678 0 .96049242-.19488252 1.2992168-.58464756.33872438-.38976504.5104066-.90017164.5104066-1.52657974v-4.51941844h1.78178304v7.86026164ZM210.18149996 41.95409588c-.3480045.17168222-.80737044.25984336-1.37345776.25984336-1.52657974 0-2.28754958-.73312948-2.28754958-2.19474838v-4.44517748h-1.31313698v-1.39665806h1.31313698V32.3584518l1.78178304-.50576654v2.32467006h1.8792243v1.39665806h-1.8792243v3.93013082c0 .464006.08352108.79809032.2552033.9976129.16704216.19952258.45008582.29696384.84449092.29696384.3016039 0 .56144726-.08816114.78417014-.25984336v1.41057824l-.00464006.00464006ZM110.35060906 51.475499c-.24128312-.1392018-.51504666-.2088027-.82129062-.2088027-.86305116 0-1.29457674.4872063-1.29457674 1.46625896v1.0672138h1.82354358v1.39665806h-1.81890352v6.45896352h-1.78178304v-6.45896352h-1.34097734v-1.39665806h1.34097734v-1.27137644c0-.83057074.26912348-1.48017914.8120105-1.96274538.54288702-.47792618 1.22033578-.7192093 2.03234628-.7192093.4408057 0 .7888102.05104066 1.0440135.14384186v1.48017914l.00464006.00464006ZM118.32223214 61.65579064h-1.78178304v-1.24353608h-.03248042c-.51968672.9512123-1.31777704 1.42449842-2.40819114 1.42449842-1.856024 0-2.784036-1.1136144-2.784036-3.34548326V53.795529h1.78178304v4.51013832c0 1.41057824.54288702 2.11586736 1.63330112 2.11586736.52432678 0 .96049242-.19488252 1.2992168-.58464756.33872438-.38976504.5104066-.90017164.5104066-1.52657974v-4.51941844h1.78178304v7.8649017Zm-5.04838528-9.22907934c-.26448342 0-.49184636-.08816114-.68208882-.26448342-.19024246-.17632228-.28304366-.38976504-.28304366-.63104816 0-.24128312.08816114-.45936594.27376354-.63104816.18096234-.16704216.40368522-.2552033.66352858-.2552033s.4872063.08816114.67744876.2552033c.19024246.17168222.28768372.38048492.28768372.6264081 0 .24592318-.0928012.464006-.2784036.63568822-.1856024.17632228-.40368522.25984336-.65888852.25984336v.00464006Zm3.19236128 0c-.2552033 0-.47792618-.08352108-.66352858-.2552033-.1856024-.16704216-.2784036-.38512498-.2784036-.64496834s.08816114-.45936594.26912348-.63104816c.18096234-.16704216.3944051-.2552033.65424846-.2552033.26912348 0 .50112648.08816114.68672888.2552033.1856024.17168222.2784036.38048492.2784036.6264081 0 .24592318-.08816114.464006-.26912348.63568822-.18096234.17632228-.40368522.25984336-.67744876.25984336v.00928012ZM125.11063992 55.49379096c-.21344276-.16704216-.52432678-.2552033-.928012-.2552033-.52896684 0-.96513248.23664306-1.31777704.71456924-.35264456.47328612-.52896684 1.12289452-.52896684 1.93954508v3.7584486H120.554101V53.795529h1.78178304v1.61938094h.03248042c.17168222-.55216714.4408057-.98369272.80273038-1.29457674.36192468-.31088402.7656099-.464006 1.2064156-.464006.3248042 0 .56608732.0464006.73776954.14384186v1.68898184l-.00464006.00464006ZM134.48820118 61.84139304c-1.21105566 0-2.1808282-.36656474-2.90467756-1.09969422-.72384936-.73312948-1.08577404-1.70754208-1.08577404-2.91859774 0-1.31777704.37584486-2.35251042 1.13217464-3.09027996.75632978-.7424096 1.77250292-1.1136144 3.04851942-1.1136144 1.2760165 0 2.18546826.36192468 2.87219714 1.08113398.68672888.7192093 1.02545326 1.72146226 1.02545326 3.00211882 0 1.28065656-.3712048 2.25506916-1.10897434 3.01139894-.73776954.75632978-1.73074238 1.13217464-2.97891852 1.13217464v-.00464006Zm-1.52657974-9.41468174c-.26448342 0-.49184636-.08816114-.68208882-.26448342-.19024246-.17632228-.28304366-.38976504-.28304366-.63104816 0-.24128312.08816114-.45936594.27376354-.63104816.18096234-.16704216.40368522-.2552033.66352858-.2552033s.4872063.08816114.67744876.2552033c.19024246.17168222.28768372.38048492.28768372.6264081 0 .24592318-.0928012.464006-.2784036.63568822-.1856024.17632228-.40368522.25984336-.65888852.25984336v.00464006Zm1.61010082 2.60771372c-.696009 0-1.24817614.24128312-1.65186136.72848942-.40368522.4872063-.60784786 1.15537494-.60784786 2.00914598s.20416264 1.47089902.61248792 1.94418514c.40832528.47328612.95585236.70992918 1.64258124.70992918s1.23889602-.232003 1.61474088-.696009c.37584486-.464006.56608732-1.12753458.56608732-1.98594568 0-.8584111-.19024246-1.5312198-.56608732-2.00450592-.37584486-.46864606-.91409182-.70528912-1.61474088-.70528912h.00464006Zm1.58226046-2.60771372c-.2552033 0-.47792618-.08352108-.66352858-.2552033-.1856024-.16704216-.2784036-.38512498-.2784036-.64496834s.08816114-.45936594.26912348-.63104816c.18096234-.16704216.3944051-.2552033.65424846-.2552033.26912348 0 .50112648.08816114.68672888.2552033.1856024.17168222.2784036.38048492.2784036.6264081 0 .24592318-.08816114.464006-.26912348.63568822-.18096234.17632228-.40368522.25984336-.67744876.25984336v.00928012ZM147.50820954 61.65579064h-2.25506916l-3.05315948-3.77700884h-.03248042v3.77700884h-1.7864231V50.02316022h1.7864231v7.37305534h.03248042l2.88611732-3.60068656h2.13906766l-3.24340194 3.79092902 3.53108566 4.06469256-.00464006.00464006ZM151.73066414 61.84139304c-1.21105566 0-2.1808282-.36656474-2.90467756-1.09969422-.72384936-.73312948-1.08577404-1.70754208-1.08577404-2.91859774 0-1.31777704.37584486-2.35251042 1.13217464-3.09027996.75632978-.7424096 1.77250292-1.1136144 3.04851942-1.1136144 1.2760165 0 2.18546826.36192468 2.86755708 1.08113398.68672888.7192093 1.03009332 1.72146226 1.03009332 3.00211882 0 1.28065656-.3712048 2.25506916-1.10897434 3.01139894-.73776954.75632978-1.73074238 1.13217464-2.97891852 1.13217464v-.00464006Zm.08352108-6.80696802c-.696009 0-1.24353608.24128312-1.65186136.72848942-.40368522.4872063-.60784786 1.15537494-.60784786 2.00914598s.20416264 1.47089902.61248792 1.94418514c.40832528.47328612.95585236.70992918 1.64258124.70992918s1.23889602-.232003 1.61474088-.696009c.37584486-.464006.56608732-1.12753458.56608732-1.98594568 0-.8584111-.1856024-1.5312198-.56608732-2.00450592-.37584486-.46864606-.91409182-.70528912-1.61474088-.70528912h.00464006ZM157.64210058 50.02316022h1.7864231v11.63263042h-1.7864231zM165.21003844 61.84139304c-1.21105566 0-2.1808282-.36656474-2.90467756-1.09969422-.72384936-.73312948-1.08577404-1.70754208-1.08577404-2.91859774 0-1.31777704.37584486-2.35251042 1.13217464-3.09027996.75632978-.7424096 1.77250292-1.1136144 3.04851942-1.1136144 1.2760165 0 2.18546826.36192468 2.87219714 1.08113398.68672888.7192093 1.03009332 1.72146226 1.03009332 3.00211882 0 1.28065656-.3712048 2.25506916-1.10897434 3.01139894-.73776954.75632978-1.73074238 1.13217464-2.97891852 1.13217464l-.00464006-.00464006Zm.08352108-6.80696802c-.696009 0-1.24817614.24128312-1.65186136.72848942-.40368522.4872063-.60784786 1.15537494-.60784786 2.00914598s.20416264 1.47089902.61248792 1.94418514c.40832528.47328612.95585236.70992918 1.64258124.70992918s1.23889602-.232003 1.61474088-.696009c.37584486-.464006.56608732-1.12753458.56608732-1.98594568 0-.8584111-.19024246-1.5312198-.56608732-2.00450592-.37584486-.46864606-.91409182-.70528912-1.61474088-.70528912h.00464006ZM178.34140824 61.02938254c0 2.88611732-1.45233878 4.32917598-4.35237628 4.32917598-1.02545326 0-1.91634478-.17168222-2.67731462-.51504666V63.2148508c.8584111.49184636 1.67506166.73776954 2.44531162.73776954 1.86530412 0 2.80259624-.91873188 2.80259624-2.75619564v-.8584111h-.03248042c-.58928762 1.00225296-1.47553908 1.50337944-2.65411432 1.50337944-.95585236 0-1.73074238-.3480045-2.31538994-1.04865356-.58464756-.70064906-.87697134-1.63330112-.87697134-2.81187636 0-1.33633728.31552408-2.39891102.94193218-3.18308116.63104816-.7888102 1.49409932-1.1832153 2.59379354-1.1832153 1.03937344 0 1.8096234.42688552 2.31074988 1.2760165h.03248042v-1.0904141h1.78178304v7.22921348Zm-1.7632228-2.9696384v-1.0208132c0-.55216714-.1856024-1.02545326-.54752708-1.4152183-.36656474-.38976504-.82129062-.58464756-1.3688177-.58464756-.67744876 0-1.20177554.25056324-1.58690052.74704966-.38048492.50112648-.57072738 1.19713548-.57072738 2.09266706 0 .77489002.1856024 1.392018.54752708 1.856024.36656474.464006.84913098.69136894 1.45233878.69136894.6032078 0 1.1136144-.22272288 1.49409932-.66352858.38512498-.4408057.57536744-1.01153308.57536744-1.69826196l.00464006-.00464006ZM181.46880868 52.1483077c-.29232378 0-.54288702-.0928012-.74704966-.28304366-.2088027-.19024246-.31088402-.43152558-.31088402-.7192093 0-.28768372.10208132-.5336069.31088402-.72848942.2088027-.19488252.45472588-.29232378.74704966-.29232378.29232378 0 .5568072.09744126.7656099.29232378.2088027.19488252.31552408.43616564.31552408.72848942 0 .2784036-.10672138.51504666-.31552408.70992918-.2088027.19952258-.464006.29696384-.7656099.29696384v-.00464006Zm.8816114 9.50748294h-1.78178304v-7.85562158h1.78178304v7.85562158ZM184.21108414 61.41914758V59.7580061c.66352858.50576654 1.40129812.76096984 2.2040285.76096984 1.07649392 0 1.61010082-.31552408 1.61010082-.9512123 0-.18096234-.0464006-.32944426-.1392018-.45472588-.0928012-.12528162-.21808282-.23664306-.3712048-.33408432-.15776204-.09744126-.33872438-.1856024-.55216714-.25984336-.21344276-.07424096-.45008582-.1624021-.70992918-.25984336-.3248042-.12992168-.61248792-.26448342-.87233128-.40832528-.25984336-.14384186-.47328612-.30624396-.64496834-.4872063-.17168222-.18096234-.3016039-.38976504-.38976504-.61712798-.08816114-.232003-.12992168-.50112648-.12992168-.80737044 0-.37584486.08816114-.70992918.26912348-1.00225296.18096234-.28768372.42224546-.5336069.72384936-.72848942.3016039-.19488252.64496834-.34336444 1.03009332-.44544576.38512498-.10208132.77953008-.14848192 1.18785536-.14848192.72384936 0 1.37809782.11136144 1.9488252.32944426v1.55906016c-.55216714-.38048492-1.18785536-.56608732-1.9024246-.56608732-.22736294 0-.42688552.0232003-.60784786.0696009-.18096234.0464006-.33872438.11136144-.464006.19024246-.12992168.08352108-.22736294.18096234-.29696384.29696384-.0696009.1160015-.10672138.24128312-.10672138.38048492 0 .16704216.03712048.31088402.10672138.43152558.07424096.1160015.17632228.22272288.32016414.31088402.1392018.08816114.31088402.17168222.50576654.24592318s.42224546.15312198.67744876.24128312c.33872438.1392018.64032828.2784036.90945176.42224546.26912348.14384186.49648642.30624396.68672888.4872063s.33408432.38976504.43616564.63104816c.10208132.23664306.15312198.51968672.15312198.84913098 0 .39904516-.0928012.74704966-.2784036 1.0440135-.1856024.29696384-.43152558.54288702-.73776954.73776954-.30624396.19488252-.66352858.33872438-1.06257374.43152558-.40368522.0928012-.82593068.14384186-1.27137644.14384186-.8584111 0-1.60546076-.14384186-2.23186886-.43152558ZM197.1614916 61.29850602c-.63104816.36192468-1.37345776.54288702-2.23186886.54288702-1.16465506 0-2.10658724-.36192468-2.82579654-1.09505416-.71456924-.72848942-1.07649392-1.67506166-1.07649392-2.83507666 0-1.29457674.38512498-2.33395018 1.15537494-3.11812032.77024996-.78417014 1.80034328-1.17857524 3.09027996-1.17857524.71456924 0 1.3456174.12528162 1.89778454.37584486v1.65650142c-.54752708-.40832528-1.13217464-.61248792-1.74930262-.61248792-.75168972 0-1.3688177.2552033-1.85138394.7656099-.48256624.5104066-.72384936 1.17393518-.72384936 1.99986586 0 .82593068.22736294 1.45697884.67744876 1.9256249.45472588.46864606 1.05793368.70528912 1.82354358.70528912.64032828 0 1.24353608-.22736294 1.8096234-.68208882v1.54978004h.00464006ZM205.95904536 61.65579064h-1.78178304v-4.29669556c0-1.5544201-.51968672-2.33395018-1.55906016-2.33395018-.51968672 0-.96049242.22736294-1.31777704.67744876-.35728462.45008582-.53824696 1.02545326-.53824696 1.72610232v4.22709466h-1.7864231V50.02316022h1.7864231v5.0808657h.03248042c.59392768-.99297284 1.44305866-1.48945926 2.54739294-1.48945926 1.74466256 0 2.61699384 1.0672138 2.61699384 3.2016414v4.83958258ZM214.79835966 58.21286612h-5.35462924c.01856024.72848942.24592318 1.28529662.6728087 1.67970172.42688552.3944051 1.01617314.58928762 1.7632228.58928762.83985086 0 1.61010082-.25056324 2.31074988-.75168972v1.43377854c-.71456924.45008582-1.66114148.67744876-2.83971672.67744876-1.17857524 0-2.0648267-.35728462-2.71907516-1.07185386-.65888852-.71456924-.98369272-1.7168222-.98369272-3.01139894 0-1.22033578.36192468-2.21794868 1.08577404-2.98819864.72384936-.77024996 1.624021-1.15537494 2.69587486-1.15537494s1.90706466.34336444 2.49635228 1.03473338c.58928762.69136894.8816114 1.65186136.8816114 2.8768372v.68208882l-.00928012.00464006Zm-1.7168222-1.25745626c-.00464006-.64032828-.15776204-1.1368147-.45472588-1.48945926-.29696384-.35728462-.70528912-.5336069-1.2296159-.5336069s-.94657224.1856024-1.2992168.56144726c-.35728462.37584486-.57536744.86305116-.65424846 1.46625896h3.63780704v-.00464006ZM113.62185136 81.30180468h-2.1344276l-1.75858274-2.9464381c-.15776204-.26912348-.31552408-.50112648-.464006-.696009-.15312198-.19024246-.30624396-.3480045-.45936594-.47328612-.15776204-.12064156-.3248042-.21344276-.5104066-.26912348-.1856024-.05568072-.38976504-.08352108-.62176804-.08352108h-.73776954v4.46837778h-1.81890352V70.29558236h3.62388686c.51504666 0 .99297284.06032078 1.42913848.1856024.43616564.12064156.8120105.31088402 1.1368147.5568072.32016414.24592318.57536744.5568072.75632978.928012s.27376354.80737044.27376354 1.2992168c0 .38976504-.05568072.74704966-.17168222 1.07185386-.1160015.3248042-.2784036.61248792-.49184636.86769122s-.46864606.46864606-.7656099.6496084-.63568822.31552408-1.00689302.41296534V76.29982c.19952258.11136144.3712048.23664306.51968672.3712048.14848192.13456174.28768372.27376354.42224546.4176054.13456174.14384186.26448342.30624396.3944051.4872063.12992168.18096234.27376354.38976504.43616564.63104816l1.95810532 3.09027996-.00928012.00464006Zm-6.6816864-9.52140312v3.57748626h1.51729962c.28304366 0 .54288702-.04176054.77953008-.12992168.23664306-.08816114.44544576-.21344276.61712798-.37584486s.31088402-.36192468.40832528-.59856774c.09744126-.23664306.14384186-.50112648.14384186-.7888102 0-.52432678-.16704216-.93729212-.50112648-1.23425596-.33408432-.29696384-.8120105-.44544576-1.43377854-.44544576h-1.53585986l.00464006-.00464006ZM120.85106484 81.30180468h-1.72610232v-1.2296159h-.03248042c-.54288702.94193218-1.33633728 1.41057824-2.38499084 1.41057824-.77489002 0-1.37809782-.2088027-1.81426346-.63104816-.43616564-.4176054-.65888852-.9744126-.65888852-1.66578154 0-1.4848192.85377104-2.34787036 2.56131312-2.59379354l2.33395018-.32944426c0-1.12289452-.5336069-1.67970172-1.59618064-1.67970172-.93729212 0-1.78178304.32016414-2.53347276.96513248v-1.55906016c.83057074-.49184636 1.7864231-.73776954 2.87219714-.73776954 1.98594568 0 2.97891852.97905266 2.97891852 2.93251792v5.11798618Zm-1.7168222-3.86052992-1.65186136.232003c-.5104066.06496084-.89553158.19024246-1.15537494.3712048-.25984336.18096234-.38976504.50112648-.38976504.95585236 0 .33408432.12064156.6032078.35728462.81665056.23664306.21344276.5568072.32016414.95585236.32016414.54288702 0 .99297284-.19024246 1.3456174-.57072738.35728462-.38048492.5336069-.8584111.5336069-1.4384186v-.68208882l.00464006-.00464006ZM129.8806216 81.30180468h-1.78178304V80.0582686h-.03248042c-.51504666.9512123-1.31777704 1.42913848-2.40819114 1.42913848-1.856024 0-2.784036-1.1136144-2.784036-3.34548326V73.4461831h1.78178304v4.51013832c0 1.41057824.54288702 2.11586736 1.63330112 2.11586736.52896684 0 .96049242-.19488252 1.2992168-.58464756.33872438-.38976504.5104066-.90017164.5104066-1.52657974v-4.51941844h1.78178304v7.86026164ZM143.86112238 81.30180468h-1.78178304V77.0190293c0-.82129062-.1160015-1.41985836-.3480045-1.7864231-.232003-.36656474-.6264081-.55216714-1.17857524-.55216714-.464006 0-.8584111.232003-1.1832153.696009-.3248042.464006-.4872063 1.02545326-.4872063 1.6704216v4.25029496h-1.7864231v-4.42661724c0-1.4616189-.51504666-2.19474838-1.54978004-2.19474838-.48256624 0-.87697134.21808282-1.18785536.65888852-.31088402.4408057-.464006 1.01153308-.464006 1.71218214v4.25029496h-1.78178304v-7.85562158h1.78178304v1.24353608h.03248042c.56608732-.9512123 1.392018-1.42449842 2.47779204-1.42449842.54288702 0 1.01617314.14848192 1.42449842.45008582.40832528.29696384.68208882.69136894.83057074 1.17857524.58464756-1.08577404 1.45233878-1.62866106 2.60771372-1.62866106 1.73074238 0 2.59379354 1.0672138 2.59379354 3.2016414v4.83958258ZM152.72827704 77.8542401h-5.35462924c.01856024.72384936.24592318 1.28529662.6728087 1.67970172.42688552.3944051 1.01617314.58928762 1.7632228.58928762.83985086 0 1.61010082-.25056324 2.31074988-.75168972v1.43377854c-.71456924.45008582-1.66114148.67744876-2.83971672.67744876-1.17857524 0-2.0648267-.35728462-2.71907516-1.07185386-.65888852-.71456924-.98369272-1.7168222-.98369272-3.01139894 0-1.22033578.36192468-2.21794868 1.08577404-2.98819864.72384936-.77024996 1.624021-1.15537494 2.69587486-1.15537494s1.90706466.34336444 2.49635228 1.03473338c.58928762.69136894.8816114 1.65186136.8816114 2.8768372v.68208882l-.00928012.00464006Zm-1.7168222-1.25745626c-.00464006-.64032828-.15776204-1.1368147-.45472588-1.49409932-.29696384-.35728462-.70528912-.5336069-1.2296159-.5336069s-.94657224.1856024-1.2992168.56144726c-.35728462.37584486-.57536744.86305116-.65424846 1.46625896h3.63780704ZM161.4794302 81.30180468h-1.78178304v-4.42661724c0-1.46625896-.51968672-2.2040285-1.55906016-2.2040285-.54288702 0-.98833278.20416264-1.34097734.60784786-.35264456.40832528-.52896684.91873188-.52896684 1.54049992v4.48229796h-1.7864231V73.4461831h1.7864231v1.30385686h.03248042c.58928762-.99297284 1.4384186-1.48945926 2.54739294-1.48945926.85377104 0 1.5080195.2784036 1.95810532.83057074.45008582.5568072.67744876 1.35953758.67744876 2.40355108v4.8024621l-.00464006.00464006ZM167.7203109 81.2182836c-.3480045.17168222-.80737044.25984336-1.37345776.25984336-1.52193968 0-2.28754958-.73312948-2.28754958-2.19474838V74.8382011h-1.31313698v-1.39665806h1.31313698v-1.81890352l1.78178304-.50576654v2.32467006h1.8792243v1.39665806h-1.8792243v3.93013082c0 .464006.08352108.79809032.25056324.9976129.16704216.19952258.45008582.29696384.84449092.29696384.3016039 0 .56144726-.08816114.78417014-.25984336v1.4152183ZM180.2716732 73.44154304l-2.32003 7.85562158h-1.86530412l-1.42449842-5.32678888c-.05568072-.20416264-.0928012-.43616564-.10672138-.69136894h-.03248042c-.00928012.17168222-.05568072.39904516-.1392018.67744876l-1.54978004 5.34070906h-1.82354358l-2.31074988-7.85562158h1.84210382l1.42449842 5.6608732c.0464006.16704216.07888102.3944051.0928012.67744876h.05568072c.01392018-.21344276.05568072-.44544576.12064156-.69136894l1.58690052-5.64695302h1.6704216l1.41057824 5.6840735c.0464006.18096234.07888102.40368522.10208132.67744876h.05568072c.00928012-.19024246.05104066-.41296534.1160015-.67744876l1.39665806-5.6840735h1.69826196ZM182.52674236 71.79432174c-.29232378 0-.54288702-.0928012-.74704966-.28304366-.2088027-.19024246-.31088402-.43152558-.31088402-.72384936s.10208132-.5336069.31088402-.72848942c.2088027-.19488252.45472588-.29232378.74704966-.29232378.29232378 0 .5568072.09744126.7656099.29232378.2088027.19488252.31552408.43616564.31552408.72848942 0 .2784036-.10672138.51504666-.31552408.70992918-.2088027.19488252-.464006.29696384-.7656099.29696384Zm.8816114 9.50748294h-1.78178304V73.4461831h1.78178304v7.85562158ZM191.30573588 80.93988c-.63104816.36192468-1.37345776.54288702-2.23186886.54288702-1.16465506 0-2.10658724-.36656474-2.82579654-1.09505416-.71456924-.72848942-1.07649392-1.67506166-1.07649392-2.83507666 0-1.29457674.38512498-2.33395018 1.15537494-3.11812032.77024996-.78417014 1.80034328-1.17857524 3.09027996-1.17857524.71456924 0 1.3456174.12528162 1.89314448.37584486v1.65650142c-.54752708-.40832528-1.13217464-.61248792-1.74930262-.61248792-.75168972 0-1.3688177.2552033-1.85138394.76096984-.48256624.5104066-.7192093 1.17393518-.7192093 1.99986586 0 .82593068.22736294 1.45697884.67744876 1.9256249.45008582.46864606 1.05793368.70528912 1.82354358.70528912.64032828 0 1.24353608-.22736294 1.8096234-.68208882v1.54978004l.00464006.00464006ZM200.25641162 81.30180468h-2.25970922l-3.05315948-3.77700884h-.03248042v3.77700884h-1.7864231V69.66917426h1.7864231v7.37305534h.03248042l2.88611732-3.60068656h2.13906766l-3.24340194 3.79092902 3.53108566 4.06933262ZM201.51386788 69.66917426h1.7864231v11.63263042h-1.7864231zM212.4504893 81.30180468h-1.78178304V80.0582686h-.03248042c-.51504666.9512123-1.31777704 1.42913848-2.40819114 1.42913848-1.856024 0-2.784036-1.1136144-2.784036-3.34548326V73.4461831h1.78178304v4.51013832c0 1.41057824.54752708 2.11586736 1.63330112 2.11586736.52896684 0 .96049242-.19488252 1.2992168-.58464756.33872438-.38976504.5104066-.90017164.5104066-1.52657974v-4.51941844h1.78178304v7.86026164ZM221.67956864 81.30180468h-1.78178304v-4.42661724c0-1.46625896-.51968672-2.2040285-1.55906016-2.2040285-.54288702 0-.98833278.20416264-1.34097734.60784786-.35264456.40832528-.52896684.91873188-.52896684 1.54049992v4.48229796h-1.7864231V73.4461831h1.7864231v1.30385686h.03248042c.58928762-.99297284 1.4384186-1.48945926 2.54739294-1.48945926.85377104 0 1.5080195.2784036 1.95810532.83057074.45008582.5568072.67744876 1.35953758.67744876 2.40355108v4.8024621l-.00464006.00464006ZM231.04784978 80.67075652c0 2.88611732-1.45233878 4.32917598-4.35237628 4.32917598-1.02545326 0-1.91634478-.17168222-2.67731462-.51504666v-1.62866106c.8584111.49184636 1.67506166.73776954 2.44531162.73776954 1.86530412 0 2.80259624-.91873188 2.80259624-2.75619564v-.8584111h-.03248042c-.58928762 1.00225296-1.47553908 1.50337944-2.65411432 1.50337944-.95585236 0-1.73074238-.3480045-2.31538994-1.04865356-.58464756-.696009-.87697134-1.63330112-.87697134-2.81187636 0-1.33633728.31552408-2.39891102.94193218-3.18308116.63104816-.7888102 1.49409932-1.1832153 2.59379354-1.1832153 1.03937344 0 1.8096234.42224546 2.31074988 1.27137644h.03248042v-1.0904141h1.78178304v7.23385354Zm-1.7632228-2.9696384v-1.0208132c0-.55216714-.1856024-1.02545326-.54752708-1.4152183-.36656474-.38976504-.82129062-.58464756-1.3688177-.58464756-.67744876 0-1.20177554.25056324-1.58690052.74704966-.38048492.49648642-.57072738 1.19713548-.57072738 2.09266706 0 .77489002.1856024 1.392018.54752708 1.85138394.36656474.464006.84913098.696009 1.45233878.696009.6032078 0 1.1136144-.22272288 1.49409932-.66352858.38512498-.4408057.57536744-1.00689302.57536744-1.69826196l.00464006-.00464006Z"></path>
  </g>
  <g fill-rule="nonzero">
    <path fill="#5a5a5a" d="m60.96645048 31.04067476 1.09969422 4.77462174h13.14528998v40.71188644H34.49954824V70.035739l-4.7792618 1.09969422v10.16637146h50.26576998V31.04067476H60.96645048Z"></path>
    <path fill="#86bc27" d="m34.49954824 70.035739 33.67291542-7.77674056L62.0661447 35.8152965H34.49954824V70.035739Z"></path>
    <path fill="#0970b9" d="M60.96645048 31.04067476 57.2636826 14.99998734 10.00003144 25.9087684l10.91342112 47.26365116 8.80683388-2.03698634V31.04067476h31.24616404Z"></path>
  </g>
</svg>
